<svg width="400" height="315" viewBox="0 0 400 315" fill="none" xmlns="http://www.w3.org/2000/svg">
<g clip-path="url(#clip0)">
<path d="M287.844 186.869L290.99 184.806C291.29 184.604 291.584 184.389 291.888 184.188C285.139 182.954 278.989 179.309 274.455 173.854C269.922 168.4 267.277 161.464 266.959 154.194C266.727 149.195 267.617 144.208 269.553 139.645C271.357 135.376 274.019 131.579 277.354 128.522C280.688 125.465 284.612 123.223 288.851 121.953L288.695 135.115L295.498 120.789C295.526 120.785 295.554 120.785 295.582 120.789C299.524 120.594 303.464 121.225 307.177 122.648C310.89 124.071 314.302 126.256 317.22 129.081C320.138 131.905 322.503 135.312 324.182 139.108C325.86 142.904 326.819 147.014 327.003 151.204C327.028 151.813 327.003 152.413 327.003 152.995C329.37 150.125 331.518 147.05 332.942 143.679C335.823 136.852 335.891 129.121 335.651 119.724C335.196 101.101 334.442 82.3395 333.456 63.6315C326.353 62.7932 319.764 59.2905 314.872 53.7527C309.981 48.215 307.108 41.0052 306.77 33.4185C306.728 32.4382 306.741 31.4757 306.77 30.5177C306.77 30.2804 306.77 30.0387 306.804 29.8014C306.863 28.8747 306.943 27.957 307.078 27.0527C307.078 26.9005 307.128 26.7573 307.154 26.6051C307.277 25.8381 307.425 25.08 307.596 24.3309C307.663 24.0534 307.726 23.7713 307.798 23.4938C308.009 22.679 308.219 21.8777 308.51 21.0854C308.598 20.8212 308.704 20.5661 308.796 20.3064C309.011 19.7244 309.243 19.1514 309.487 18.5829C309.618 18.283 309.744 17.9875 309.883 17.6876C309.917 17.6115 309.946 17.5354 309.984 17.4593C313.156 10.8017 318.423 5.53582 324.869 2.57682C331.315 -0.382186 338.532 -0.847163 345.268 1.26271L345.065 18.3904L351.805 4.24417C357.334 7.60712 361.706 12.7605 364.282 18.9515C366.859 25.1425 367.506 32.0469 366.128 38.6562H366.161C366.115 38.8845 366.048 39.1039 365.997 39.3277C365.904 39.7485 365.803 40.1649 365.694 40.5812C365.551 41.1139 365.39 41.6377 365.226 42.1615C365.1 42.5509 364.978 42.9493 364.839 43.3343C364.636 43.8984 364.417 44.449 364.173 44.9997C364.038 45.322 363.916 45.6488 363.752 45.9666C363.367 46.7903 362.946 47.5961 362.488 48.384C362.332 48.6571 362.155 48.9167 361.991 49.1898C361.671 49.7181 361.347 50.2418 360.997 50.7522C360.782 51.0655 360.55 51.3655 360.323 51.6744C359.994 52.122 359.657 52.5697 359.308 52.9771C359.059 53.277 358.806 53.5725 358.545 53.8724C358.179 54.2843 357.8 54.6827 357.408 55.0766C357.151 55.3407 356.89 55.6049 356.62 55.8556C356.178 56.2719 355.714 56.6703 355.247 57.0598C355.011 57.2568 354.784 57.4627 354.539 57.6507C353.829 58.2118 353.094 58.7385 352.336 59.231C352.193 59.3205 352.041 59.3966 351.915 59.4861C351.283 59.8845 350.651 60.2561 349.973 60.6053C349.691 60.753 349.396 60.8828 349.105 61.0216C348.562 61.2813 348.014 61.532 347.454 61.7603C347.13 61.8901 346.797 62.011 346.464 62.1318C345.912 62.3333 345.352 62.5168 344.779 62.6825C344.442 62.7809 344.109 62.8794 343.768 62.9645C343.153 63.1212 342.525 63.251 341.894 63.3629C341.851 63.3629 341.813 63.3629 341.771 63.3898C342.187 71.2806 342.556 79.176 342.879 87.0758C344.671 83.1669 347.195 79.6882 350.297 76.8532C353.399 74.0182 357.014 71.8866 360.919 70.5893C364.824 69.2919 368.937 68.8561 373.006 69.3085C377.075 69.761 381.015 71.0922 384.582 73.2205L379.27 88.6874L390.197 77.536C396.047 83.2337 399.531 91.1641 399.886 99.588C400.025 102.544 399.768 105.506 399.124 108.385C397.751 114.615 394.648 120.263 390.218 124.596C385.787 128.93 380.234 131.748 374.277 132.685C368.321 133.623 362.237 132.637 356.815 129.855C351.393 127.072 346.882 122.623 343.869 117.083C343.869 117.884 343.924 118.69 343.945 119.491C344.143 127.782 344.391 138.096 340.503 147.309C337.871 153.554 333.629 158.626 329.437 163.17C326.712 166.129 323.885 168.99 320.987 171.761C318.138 175.827 314.418 179.114 310.136 181.35C305.376 185.247 300.447 188.897 295.35 192.3L292.254 194.422C289.394 196.306 286.462 198.24 283.585 200.241C284.09 200.187 284.592 200.129 285.106 200.107C291.474 199.79 297.773 201.632 303.091 205.369C308.41 209.105 312.473 214.541 314.694 220.892L295.915 237.138L316.556 232.048C316.55 237.448 315.256 242.759 312.796 247.484C310.335 252.209 306.787 256.194 302.484 259.067C298.181 261.94 293.262 263.607 288.189 263.911C283.115 264.216 278.051 263.149 273.471 260.81C273.934 261.428 274.402 262.041 274.865 262.655C275.788 263.877 276.706 265.09 277.603 266.294C289.819 282.737 293.223 298.352 287.17 310.255L279.815 306.029C285.712 294.444 276.866 279.617 271.04 271.801C270.16 270.619 269.259 269.428 268.349 268.219C260.543 257.923 251.697 246.23 251.92 231.9C252.236 210.323 271.988 197.309 287.844 186.869Z" fill="#F2F2F2"/>
<path d="M191.876 315C297.847 315 383.753 310.791 383.753 305.599C383.753 300.407 297.847 296.198 191.876 296.198C85.906 296.198 0 300.407 0 305.599C0 310.791 85.906 315 191.876 315Z" fill="#3F3D56"/>
<path d="M346.89 302.094C348.154 299.627 346.721 296.605 345.087 294.403C343.452 292.2 341.46 289.926 341.502 287.11C341.561 283.081 345.584 280.704 348.802 278.569C351.186 276.983 353.384 275.103 355.353 272.969C356.179 272.147 356.862 271.177 357.37 270.104C358.032 268.528 358.015 266.737 357.973 265.009C357.832 259.261 357.566 253.519 357.172 247.783" stroke="#3F3D56" stroke-width="4" stroke-miterlimit="10"/>
<path d="M363.284 247.479C363.237 246.427 362.943 245.405 362.428 244.505C361.912 243.606 361.193 242.858 360.336 242.33L359.013 245.115L359.051 241.749C358.146 241.46 357.19 241.408 356.262 241.594C355.334 241.781 354.462 242.202 353.718 242.821C352.975 243.44 352.383 244.241 351.992 245.154C351.6 246.067 351.421 247.067 351.469 248.07C351.542 249.732 352.234 251.295 353.392 252.415C353.966 252.969 354.636 253.398 355.366 253.677C356.095 253.956 356.869 254.08 357.644 254.041C358.418 254.003 359.178 253.802 359.88 253.451C360.581 253.1 361.211 252.606 361.733 251.997C362.254 251.387 362.658 250.675 362.921 249.9C363.184 249.124 363.3 248.302 363.263 247.479H363.284Z" fill="#57B793"/>
<path d="M352.741 290.007C352.122 291.285 351.108 292.298 349.87 292.876C348.632 293.454 347.244 293.563 345.94 293.183C344.635 292.803 343.493 291.959 342.705 290.791C341.917 289.623 341.53 288.202 341.61 286.767C341.69 285.332 342.232 283.97 343.145 282.91C344.057 281.849 345.285 281.153 346.623 280.94C347.96 280.727 349.326 281.009 350.492 281.739C351.657 282.468 352.551 283.601 353.023 284.948L349.333 288.14L353.394 287.137C353.394 288.135 353.171 289.119 352.741 290.007Z" fill="#57B793"/>
<path d="M349.822 277.79C349.046 277.83 348.271 277.706 347.54 277.427C346.809 277.147 346.138 276.717 345.564 276.161C344.99 275.605 344.525 274.933 344.196 274.186C343.867 273.438 343.68 272.629 343.646 271.805C343.599 270.822 343.774 269.841 344.156 268.944C344.51 268.104 345.033 267.357 345.688 266.756C346.343 266.154 347.114 265.712 347.947 265.461L347.918 268.053L349.257 265.233C350.824 265.155 352.356 265.742 353.516 266.865C354.675 267.987 355.368 269.553 355.441 271.218C355.514 272.883 354.962 274.511 353.906 275.744C352.85 276.976 351.376 277.712 349.809 277.79H349.822Z" fill="#57B793"/>
<path d="M364.173 267.623C362.609 267.702 361.08 267.117 359.922 265.997C358.764 264.877 358.072 263.314 357.998 261.652C357.924 259.989 358.475 258.364 359.528 257.133C360.582 255.903 362.053 255.167 363.617 255.089C364.723 255.031 365.821 255.307 366.785 255.886L365.74 258.93L367.889 256.736C369.041 257.856 369.729 259.416 369.801 261.074C369.828 261.655 369.777 262.237 369.649 262.802C369.355 264.13 368.66 265.319 367.672 266.189C366.684 267.059 365.455 267.563 364.173 267.623Z" fill="#57B793"/>
<path opacity="0.1" d="M362.488 249.135C361.124 249.296 359.797 249.748 358.428 249.838C357.059 249.927 355.555 249.578 354.687 248.445C354.219 247.837 353.988 247.067 353.592 246.404C353.219 245.785 352.708 245.273 352.105 244.913C351.748 245.706 351.552 246.569 351.53 247.447C351.507 248.325 351.658 249.198 351.974 250.01C352.289 250.822 352.762 251.555 353.361 252.16C353.96 252.765 354.672 253.23 355.451 253.524C356.23 253.818 357.058 253.935 357.882 253.866C358.706 253.798 359.508 253.547 360.234 253.128C360.961 252.71 361.597 252.134 362.101 251.437C362.604 250.741 362.965 249.94 363.158 249.086C362.931 249.095 362.707 249.112 362.488 249.135Z" fill="black"/>
<path opacity="0.1" d="M364.173 267.623C363.154 267.678 362.138 267.451 361.226 266.964C360.314 266.477 359.536 265.746 358.969 264.844C358.403 263.941 358.066 262.898 357.992 261.816C357.919 260.734 358.111 259.65 358.55 258.67C359.019 259.007 359.422 259.437 359.738 259.937C360.159 260.613 360.412 261.392 360.909 262.014C361.827 263.165 363.402 263.541 364.83 263.469C366.258 263.397 367.632 262.972 369.043 262.833C369.237 262.833 369.439 262.798 369.637 262.793C369.344 264.12 368.653 265.31 367.667 266.181C366.681 267.053 365.454 267.559 364.173 267.623Z" fill="black"/>
<path opacity="0.1" d="M349.822 277.79C349.046 277.83 348.27 277.706 347.54 277.427C346.809 277.147 346.138 276.717 345.564 276.161C344.99 275.604 344.525 274.933 344.196 274.186C343.867 273.438 343.68 272.629 343.646 271.805C343.599 270.822 343.774 269.841 344.156 268.944C344.646 269.285 345.074 269.717 345.42 270.22C345.879 270.909 346.165 271.702 346.683 272.337C347.682 273.519 349.358 273.936 350.87 273.895C352.383 273.855 353.743 273.479 355.201 273.363C354.841 274.599 354.132 275.687 353.169 276.479C352.207 277.271 351.038 277.729 349.822 277.79Z" fill="black"/>
<path opacity="0.1" d="M352.74 290.007C352.422 290.759 351.968 291.437 351.403 292.003C350.838 292.568 350.174 293.01 349.449 293.303C348.724 293.596 347.951 293.734 347.175 293.71C346.4 293.685 345.636 293.499 344.928 293.161C344.22 292.823 343.582 292.34 343.05 291.74C342.518 291.139 342.102 290.434 341.827 289.663C341.551 288.892 341.421 288.071 341.444 287.247C341.467 286.422 341.643 285.611 341.961 284.859C342.446 285.201 342.883 285.616 343.258 286.09C343.818 286.819 344.189 287.643 344.842 288.328C346.051 289.586 348.001 290.119 349.737 290.155C350.74 290.169 351.743 290.119 352.74 290.007Z" fill="black"/>
<path d="M337.976 299.251C337.976 299.251 342.639 299.099 344.046 298.033C345.453 296.968 351.207 295.697 351.574 297.407C351.94 299.117 358.588 305.912 353.318 305.939C348.048 305.966 341.076 305.044 339.674 304.149C338.271 303.253 337.976 299.251 337.976 299.251Z" fill="#656380"/>
<path opacity="0.2" d="M353.41 305.344C348.145 305.389 341.169 304.448 339.766 303.553C338.701 302.864 338.271 300.379 338.132 299.233H337.976C337.976 299.233 338.271 303.231 339.661 304.157C341.051 305.084 348.035 305.984 353.305 305.948C354.826 305.948 355.352 305.357 355.323 304.507C355.125 305.012 354.544 305.335 353.41 305.344Z" fill="black"/>
<path d="M81.8936 288.283C78.8354 282.267 82.3148 274.898 86.2914 269.535C90.2679 264.172 95.1375 258.594 95.0322 251.758C94.8805 241.937 85.074 236.139 77.2389 230.933C71.4248 227.069 66.0616 222.487 61.2611 217.284C59.336 215.193 57.4699 212.964 56.3494 210.296C54.7318 206.455 54.774 202.09 54.8793 197.882C55.2163 183.855 55.8678 169.855 56.8338 155.882" stroke="#3F3D56" stroke-width="4" stroke-miterlimit="10"/>
<path d="M41.9348 155.116C42.0502 152.554 42.7694 150.063 44.0266 147.873C45.2837 145.683 47.0384 143.863 49.1296 142.582L52.3564 149.364L52.2595 141.153C55.1909 140.236 58.321 140.331 61.1978 141.427C64.0746 142.523 66.5492 144.562 68.2644 147.25C69.9796 149.938 70.8466 153.136 70.7401 156.382C70.6337 159.627 69.5593 162.753 67.6722 165.308C65.785 167.862 63.1828 169.713 60.2412 170.594C57.2996 171.474 54.1708 171.338 51.3066 170.205C48.4425 169.073 45.9912 167.002 44.3066 164.292C42.6221 161.582 41.7915 158.374 41.9348 155.13V155.116Z" fill="#57B793"/>
<path d="M67.6392 258.778C69.0883 261.779 71.4296 264.188 74.2993 265.629C77.169 267.071 80.4064 267.465 83.5086 266.751C86.6108 266.036 89.4041 264.253 91.4545 261.678C93.5049 259.103 94.6976 255.88 94.8473 252.51C94.9479 250.392 94.6279 248.275 93.9079 246.297C92.8555 243.395 90.9971 240.903 88.5797 239.151C86.1623 237.399 83.3004 236.47 80.3743 236.488C77.4483 236.506 74.5967 237.47 72.1985 239.251C69.8003 241.033 67.9692 243.548 66.9484 246.462L75.9503 254.243L66.0469 251.794C66.0428 254.224 66.5889 256.619 67.6392 258.778Z" fill="#57B793"/>
<path d="M74.7537 229.044C78.2877 229.215 81.7578 228 84.5033 225.629C87.2487 223.258 89.0778 219.897 89.6424 216.185C90.2069 212.474 89.4675 208.671 87.5648 205.502C85.6622 202.332 82.7292 200.017 79.3242 198.996L79.4 205.304L76.1564 198.441H76.1185C72.2994 198.252 68.5658 199.683 65.7393 202.419C62.9127 205.155 61.2246 208.972 61.0464 213.031C60.8682 217.089 62.2145 221.057 64.7891 224.061C67.3636 227.065 70.9556 228.859 74.7748 229.048L74.7537 229.044Z" fill="#57B793"/>
<path d="M39.7651 204.301C41.9966 204.417 44.2227 203.98 46.2679 203.024C48.313 202.069 50.1212 200.621 51.5497 198.796C52.9782 196.97 53.9879 194.817 54.4991 192.506C55.0103 190.195 55.009 187.789 54.4954 185.478C53.9817 183.168 52.9697 181.015 51.5393 179.192C50.1089 177.368 48.2992 175.923 46.253 174.97C44.2069 174.017 41.9803 173.582 39.749 173.7C37.5177 173.818 35.3428 174.486 33.396 175.651L35.9234 183.068L30.7042 177.71C29.309 179.059 28.1778 180.688 27.3755 182.502C26.5732 184.316 26.1154 186.281 26.0284 188.284C25.9615 189.701 26.0849 191.121 26.3949 192.501C27.1114 195.746 28.8046 198.654 31.2177 200.784C33.6307 202.914 36.6317 204.149 39.7651 204.301Z" fill="#57B793"/>
<path opacity="0.1" d="M43.8722 159.199C47.2 159.588 50.4351 160.685 53.7714 160.905C57.1076 161.124 60.7766 160.278 62.8871 157.52C64.0244 156.034 64.5931 154.154 65.5535 152.533C66.4636 151.023 67.711 149.776 69.1847 148.903C70.1023 150.844 70.6209 152.97 70.7061 155.141C70.7914 157.311 70.4412 159.476 69.6789 161.492C68.9166 163.508 67.7596 165.328 66.2848 166.832C64.8099 168.336 63.0508 169.49 61.1243 170.216C59.1978 170.943 57.148 171.226 55.1108 171.046C53.0736 170.866 51.0957 170.228 49.3084 169.174C47.521 168.119 45.9651 166.673 44.7439 164.931C43.5227 163.189 42.6641 161.191 42.2251 159.069C42.7854 159.096 43.333 159.136 43.8722 159.199Z" fill="black"/>
<path opacity="0.1" d="M39.7655 204.301C42.2493 204.423 44.7206 203.86 46.9394 202.668C49.1582 201.475 51.0492 199.693 52.4289 197.495C53.8086 195.297 54.6302 192.757 54.8138 190.121C54.9975 187.486 54.537 184.845 53.477 182.455C52.3326 183.273 51.3484 184.319 50.5788 185.535C49.551 187.182 48.9318 189.085 47.7228 190.598C45.4776 193.401 41.6443 194.318 38.1648 194.153C34.6853 193.987 31.328 192.93 27.8654 192.595C27.3852 192.55 26.8965 192.514 26.4121 192.501C27.1278 195.743 28.8186 198.649 31.2282 200.779C33.6379 202.908 36.6351 204.145 39.7655 204.301Z" fill="black"/>
<path opacity="0.1" d="M74.7538 229.044C77.2134 229.167 79.6615 228.617 81.8647 227.449C84.0679 226.281 85.9526 224.532 87.339 222.369C88.7255 220.207 89.5674 217.703 89.7844 215.096C90.0015 212.49 89.5865 209.867 88.579 207.48C87.3921 208.318 86.3599 209.38 85.5334 210.613C84.4129 212.292 83.7136 214.226 82.4036 215.775C79.973 218.653 75.8869 219.67 72.2011 219.576C68.6331 219.495 65.1958 218.564 61.6489 218.273C62.527 221.282 64.2562 223.93 66.6011 225.857C68.946 227.785 71.7927 228.897 74.7538 229.044Z" fill="black"/>
<path opacity="0.1" d="M67.6392 258.778C69.0883 261.779 71.4296 264.188 74.2993 265.63C77.1689 267.071 80.4064 267.466 83.5086 266.751C86.6108 266.036 89.404 264.253 91.4544 261.678C93.5048 259.103 94.6975 255.88 94.8473 252.51C94.9479 250.392 94.6278 248.275 93.9079 246.297C92.722 247.125 91.6574 248.134 90.7486 249.292C89.3795 251.082 88.4739 253.079 86.89 254.735C83.9413 257.806 79.1855 259.078 74.952 259.212C72.5084 259.221 70.0665 259.076 67.6392 258.778Z" fill="black"/>
<path d="M181.649 297.228L126.044 309.315L124.781 309.18L75.9165 303.943V238.136L135.733 227.392L179.121 232.764L179.134 233.055L179.138 233.198L181.649 297.228Z" fill="#6C63FF"/>
<path opacity="0.1" d="M181.649 297.228L126.044 309.315L124.781 309.18V241.717L179.134 233.055L181.649 297.228Z" fill="black"/>
<path opacity="0.05" d="M179.138 233.198L179.121 233.212L124.781 241.717L75.9165 238.136L135.733 227.392L179.121 232.764L179.134 233.055L179.138 233.198Z" fill="black"/>
<path d="M242.729 299.914L187.125 312.001L185.861 311.866L136.997 306.629V240.822L196.813 230.078L240.201 235.45L240.214 235.741L240.218 235.884L242.729 299.914Z" fill="#3F3D56"/>
<path opacity="0.1" d="M242.729 299.914L187.125 312.001L185.861 311.866V244.403L240.214 235.741L242.729 299.914Z" fill="black"/>
<path opacity="0.05" d="M240.218 235.884L240.201 235.898L185.861 244.403L136.997 240.822L196.813 230.078L240.201 235.45L240.214 235.741L240.218 235.884Z" fill="black"/>
<path d="M204.396 235.45L148.792 247.537L147.528 247.402L98.6636 242.165V176.358L158.48 165.614L201.868 170.986L201.881 171.277L201.885 171.42L204.396 235.45Z" fill="#3F3D56"/>
<path opacity="0.1" d="M204.396 235.45L148.792 247.537L147.528 247.402V179.939L201.881 171.277L204.396 235.45Z" fill="black"/>
<path opacity="0.05" d="M201.885 171.42L201.868 171.434L147.528 179.939L98.6636 176.358L158.48 165.614L201.868 170.986L201.881 171.277L201.885 171.42Z" fill="black"/>
<path d="M235.988 238.208L206.969 244.52L206.308 244.448L180.806 241.713V207.368L212.024 201.759L234.67 204.565L234.678 204.718V204.789L235.988 238.208Z" fill="#3F3D56"/>
<path opacity="0.1" d="M235.989 238.207L206.969 244.52L206.308 244.448V209.239L234.679 204.718L235.989 238.207Z" fill="black"/>
<path opacity="0.05" d="M234.679 204.789L234.67 204.798L206.308 209.239L180.806 207.368L212.024 201.759L234.67 204.565L234.679 204.718V204.789Z" fill="black"/>
<path d="M158.059 171.505L129.039 177.813L128.378 177.746L102.876 175.011V140.666L134.094 135.056L156.74 137.863L156.749 138.015V138.087L158.059 171.505Z" fill="#3F3D56"/>
<path opacity="0.1" d="M158.059 171.505L129.04 177.813L128.378 177.746V142.537L156.749 138.015L158.059 171.505Z" fill="black"/>
<path opacity="0.05" d="M156.749 138.087L156.74 138.096L128.378 142.537L102.876 140.666L134.094 135.056L156.74 137.863L156.749 138.015V138.087Z" fill="black"/>
<path d="M209.029 170.162L180.01 176.47L179.348 176.403L153.846 173.668V139.323L185.065 133.713L207.711 136.52L207.719 136.672V136.744L209.029 170.162Z" fill="#6C63FF"/>
<path opacity="0.1" d="M209.029 170.162L180.01 176.47L179.349 176.403V141.194L207.719 136.672L209.029 170.162Z" fill="black"/>
<path opacity="0.05" d="M207.719 136.744L207.711 136.753L179.348 141.194L153.846 139.323L185.065 133.713L207.711 136.52L207.719 136.672V136.744Z" fill="black"/>
<path d="M224.194 135.692L195.175 141.999L194.513 141.932L169.011 139.197V104.852L200.23 99.2429L222.876 102.05L222.884 102.202V102.274L224.194 135.692Z" fill="#3F3D56"/>
<path opacity="0.1" d="M224.194 135.692L195.175 142L194.513 141.932V106.724L222.884 102.202L224.194 135.692Z" fill="black"/>
<path opacity="0.05" d="M222.884 102.274L222.876 102.283L194.513 106.723L169.011 104.852L200.23 99.2429L222.876 102.05L222.884 102.202V102.274Z" fill="black"/>
<path d="M243.959 65.4803C243.651 68.3901 241.562 70.7359 240.787 73.5382C239.624 77.7687 241.629 82.3125 244.393 85.6252C246.62 88.2574 249.316 90.3938 252.326 91.9107C255.335 93.4276 258.598 94.2948 261.925 94.4621C262.902 94.5515 263.887 94.4375 264.823 94.1264C265.657 93.7658 266.408 93.2192 267.026 92.5237C269.099 90.3078 270.215 87.2413 270.657 84.1479C271.1 81.0545 270.931 77.9074 270.758 74.7872C270.758 74.1415 270.647 73.5012 270.43 72.8981C270.148 72.3244 269.759 71.8174 269.288 71.4073C267.794 69.9482 266.148 68.676 264.381 67.6156C263.623 67.168 262.81 66.7203 262.325 65.9458C261.993 65.3291 261.777 64.6494 261.689 63.9448L261.146 61.0081C261.05 60.1613 260.778 59.3479 260.349 58.6265C259.393 57.2566 257.561 57.0686 255.956 57.0015L250.059 56.7553C248.226 56.6792 245.817 56.1196 244.026 56.5046C242.341 56.8582 242.91 58.4967 243.213 59.9829C243.652 61.7805 243.902 63.6242 243.959 65.4803Z" fill="#FFC0C6"/>
<path opacity="0.1" d="M243.959 65.4803C243.651 68.3901 241.562 70.7359 240.787 73.5382C239.624 77.7687 241.629 82.3125 244.393 85.6252C246.62 88.2574 249.316 90.3938 252.326 91.9107C255.335 93.4276 258.598 94.2948 261.925 94.4621C262.902 94.5515 263.887 94.4375 264.823 94.1264C265.657 93.7658 266.408 93.2192 267.026 92.5237C269.099 90.3078 270.215 87.2413 270.657 84.1479C271.1 81.0545 270.931 77.9074 270.758 74.7872C270.758 74.1415 270.647 73.5012 270.43 72.8981C270.148 72.3244 269.759 71.8174 269.288 71.4073C267.794 69.9482 266.148 68.676 264.381 67.6156C263.623 67.168 262.81 66.7203 262.325 65.9458C261.993 65.3291 261.777 64.6494 261.689 63.9448L261.146 61.0081C261.05 60.1613 260.778 59.3479 260.349 58.6265C259.393 57.2566 257.561 57.0686 255.956 57.0015L250.059 56.7553C248.226 56.6792 245.817 56.1196 244.026 56.5046C242.341 56.8582 242.91 58.4967 243.213 59.9829C243.652 61.7805 243.902 63.6242 243.959 65.4803Z" fill="black"/>
<path d="M281.412 196.539L278.91 225.691C278.257 233.337 277.591 241.014 276.31 248.562C275.889 251.163 275.35 253.75 274.735 256.316C273.025 263.438 270.544 270.399 269.743 277.701C269.718 277.911 269.697 278.148 269.676 278.341C269.512 279.952 269.368 281.582 268.833 283.086C268.412 284.201 267.818 285.217 267.384 286.318C266.542 288.521 266.407 290.956 266.302 293.342C263.265 291.52 259.94 290.306 256.491 289.761C254.806 289.497 252.974 289.313 251.857 287.97C250.594 286.511 250.741 284.277 250.952 282.316C251.614 276.228 252.274 270.142 252.932 264.06C253.151 261.443 253.573 258.85 254.195 256.307C254.423 255.461 254.697 254.628 254.975 253.795C255.358 252.649 255.745 251.503 256.036 250.326C256.439 248.434 256.718 246.515 256.87 244.582C257.548 238.458 258.366 232.348 259.082 226.228L259.12 225.906C260.194 216.63 261.011 207.31 260.775 197.967C260.741 196.584 260.687 195.2 260.602 193.812C260.484 191.802 260.312 190.737 261.866 189.479C263.597 188.091 265.876 187.12 267.856 186.211C268.922 185.719 280.658 181.287 280.915 182.263C281.459 184.336 281.743 186.476 281.757 188.629C281.781 191.27 281.666 193.911 281.412 196.539Z" fill="#605D82"/>
<path opacity="0.1" d="M276.31 248.562C275.889 251.163 275.35 253.75 274.735 256.315C273.024 263.438 270.543 270.399 269.743 277.7C269.718 277.911 269.697 278.148 269.676 278.341C264.444 270.399 260.038 261.858 254.932 253.831C255.315 252.685 255.703 251.539 255.994 250.362C256.412 248.459 256.705 246.528 256.87 244.582C257.548 238.458 258.365 232.347 259.081 226.228L259.119 225.906C259.415 227.204 259.838 228.466 260.383 229.67C263.812 237.075 271.959 240.817 275.944 247.904C276.076 248.125 276.198 248.344 276.31 248.562Z" fill="black"/>
<path d="M233.857 183.462C234.03 189.398 234.923 195.285 235.816 201.15L237.657 213.237C238.664 219.862 239.717 226.617 242.666 232.549C244.873 236.99 248.049 240.777 250.926 244.757C257.995 254.543 263.306 265.631 270.008 275.704C271.959 278.632 274.743 281.801 278.067 281.188C280.249 280.789 281.833 278.855 283.543 277.369C285.565 275.614 288 274.329 289.592 272.127C291.184 269.924 291.496 266.271 289.339 264.705C288.602 264.172 287.705 263.971 286.871 263.63C283.53 262.287 281.365 258.813 279.992 255.304C278.619 251.794 277.78 248.029 275.948 244.766C271.963 237.679 263.812 233.937 260.383 226.528C258.462 222.382 258.277 217.574 258.134 212.977L257.759 201.199C257.717 199.91 257.687 198.571 258.18 197.394C259.49 194.26 263.45 193.965 266.66 193.566C270.3 193.114 273.826 191.933 277.052 190.083C278.901 189.022 280.704 187.67 281.685 185.701C282.587 183.91 282.709 181.801 282.814 179.769L283.926 158.42C284.023 156.584 284.107 154.682 283.505 152.963C281.976 148.638 276.837 147.224 272.494 147.43C264.414 147.815 256.958 151.508 249.325 154.006C247.434 154.624 245.534 155.179 243.584 155.595C241.899 155.958 239.793 155.81 238.175 156.392C235.277 157.431 235.349 164.172 234.94 166.966C234.097 172.417 233.734 177.94 233.857 183.462Z" fill="#605D82"/>
<path d="M276.972 282.092C277.683 282.858 277.915 283.977 278.1 285.033C279.13 290.897 279.666 296.846 279.701 302.81C279.655 303.367 279.759 303.926 280 304.422C280.202 304.716 280.474 304.947 280.788 305.093C282.848 306.136 285.236 304.681 286.955 303.083C290.135 300.124 292.827 296.149 293.008 291.659C293.055 290.504 292.932 289.335 293.122 288.194C293.4 286.502 294.331 285.029 295.148 283.552C296.546 281.033 297.677 278.358 298.518 275.574C298.83 274.527 299.04 273.21 298.265 272.481C297.994 272.252 297.684 272.08 297.351 271.975L288.042 268.304C287.233 267.986 285.228 273.461 284.912 274.061C284.133 275.525 283.358 276.353 281.795 276.693C280.232 277.034 278.303 276.541 276.811 277.387C274.284 278.815 275.544 280.566 276.972 282.092Z" fill="#535070"/>
<path d="M262.616 285.472C262.443 285.106 262.202 284.782 261.908 284.519C261.478 284.227 260.988 284.051 260.48 284.004C258.711 283.681 256.613 283.471 255.387 284.872C254.241 286.184 254.439 288.319 253.483 289.797C253.18 290.244 252.767 290.647 252.506 291.14C252.181 291.893 252.037 292.721 252.085 293.548C252.034 295.827 251.984 298.114 252.135 300.388C252.257 302.295 252.557 304.296 253.681 305.792C255.484 308.191 258.736 308.536 261.617 308.688L263.955 308.818C264.598 308.898 265.25 308.834 265.868 308.63C266.251 308.443 266.595 308.175 266.878 307.844C267.162 307.512 267.38 307.123 267.519 306.7C268.736 303.486 266.811 300.026 265.623 296.802C264.254 293.091 264.499 288.977 262.616 285.472Z" fill="#535070"/>
<path d="M243.285 49.0731C243.255 48.7472 243.3 48.4186 243.415 48.1151C243.757 47.4749 244.65 47.6674 245.324 47.8286C248.032 48.5538 250.888 47.8957 253.681 48.0659C256.474 48.236 259.616 49.7177 260.177 52.6276C262.203 51.1037 263.949 49.198 265.328 47.0049C266.104 45.7738 266.778 44.3637 266.672 42.8864C266.521 40.7555 264.84 39.1618 263.302 37.8098L258.669 33.7808C258.058 33.1858 257.354 32.71 256.588 32.3752C255.518 31.9857 254.347 32.1737 253.218 32.1737C249.848 32.1737 246.233 30.5397 243.23 32.1737C241.966 32.8587 241.027 34.036 240.117 35.182L235.976 40.3929C235.663 40.725 235.434 41.1363 235.311 41.5881C235.193 42.2238 235.5 42.8506 235.61 43.4907C235.804 44.6546 235.332 45.8992 235.694 47.0183C236.296 48.8717 238.419 49.1358 239.717 50.2012C240.197 50.5952 240.955 51.9426 241.532 51.9247C242.548 51.9024 243.255 49.9326 243.285 49.0731Z" fill="#3F3D56"/>
<path d="M250.311 64.4415C257.639 64.4415 263.58 58.128 263.58 50.34C263.58 42.552 257.639 36.2385 250.311 36.2385C242.983 36.2385 237.042 42.552 237.042 50.34C237.042 58.128 242.983 64.4415 250.311 64.4415Z" fill="#FFC0C6"/>
<path d="M253.42 81.1975C252.97 79.8307 252.124 78.6511 251.003 77.8288C249.881 77.0065 248.543 76.584 247.181 76.6224C246.791 76.7016 246.386 76.6467 246.027 76.4657C245.823 76.3004 245.66 76.0854 245.551 75.839C244.747 74.2956 244.098 72.666 243.617 70.9773C243.407 70.2297 243.116 69.3478 242.404 69.1553C241.831 68.9986 241.246 69.3926 240.863 69.8716C240.523 70.3856 240.154 70.8774 239.759 71.3444C238.074 72.9291 235.125 71.4832 233.36 72.9381C233.07 73.1753 232.829 73.4798 232.518 73.6991C232.214 73.8955 231.887 74.0462 231.545 74.1468C228.118 75.3313 224.76 76.7259 221.485 78.3235C222.665 85.8622 223.87 93.5441 226.633 100.595C227.947 103.952 229.434 107.243 230.487 110.703C232.821 118.372 232.922 126.577 232.952 134.64C232.952 140.155 232.952 145.787 231.267 151.007C230.887 152.188 230.424 153.361 230.319 154.588C230.214 155.814 230.559 157.202 231.507 157.936C232.055 158.321 232.685 158.556 233.339 158.621C236.25 159.069 239.182 158.254 242.046 157.547C249.726 155.658 257.561 154.574 265.375 153.518L278.475 151.727C279.415 151.657 280.335 151.404 281.188 150.98C283.585 149.587 283.813 145.755 282.321 143.32C281.609 142.152 280.603 141.194 280 139.958C279.398 138.723 279.352 136.986 280.384 136.131C282.49 134.385 281.858 131.148 281.959 128.319C282.24 120.404 282.202 112.495 281.845 104.593C281.738 102.954 281.713 101.31 281.77 99.6682C281.917 96.8837 282.566 94.1574 283.214 91.449L287.195 74.7959C286.155 73.05 284.162 71.9398 282.279 71.4384C280.396 70.937 278.429 70.7893 276.571 70.176C272.78 68.9225 269.377 65.7441 265.404 66.0395C265.103 66.0452 264.807 66.1217 264.536 66.2634C263.643 66.8051 263.782 68.1749 263.728 69.2672C263.601 71.6891 261.925 73.7081 260.08 75.1272C258.235 76.5463 256.12 77.5759 254.422 79.192C254.128 79.4281 253.885 79.7301 253.712 80.0766C253.539 80.4231 253.439 80.8057 253.42 81.1975Z" fill="#3F3D56"/>
<path d="M200.845 96.9956C199.966 97.6028 199.032 98.1143 198.056 98.5221C197.129 98.9116 196.139 99.2205 195.381 99.9009C195.006 100.247 194.691 100.661 194.45 101.123C194.001 101.97 193.774 102.929 193.793 103.9C193.812 104.872 194.075 105.82 194.556 106.646C195.038 107.472 195.718 108.146 196.528 108.598C197.338 109.049 198.247 109.261 199.16 109.212C200.377 109.145 201.527 108.621 202.643 108.107L212.003 103.778C213.587 103.048 215.298 102.197 216.047 100.541C216.133 100.386 216.166 100.204 216.14 100.026C216.068 99.8312 215.929 99.6716 215.753 99.5786C213.643 98.1203 211.798 96.2702 210.306 94.1171C209.923 93.562 209.463 92.2548 208.907 91.9191C206.927 90.7507 202.433 95.9033 200.845 96.9956Z" fill="#FFC0C6"/>
<path d="M300.898 93.4814L304.348 97.6716C305.089 98.5669 305.831 99.4623 306.505 100.429C308.163 102.857 309.493 105.519 310.456 108.339C311.206 110.43 311.829 112.659 311.568 114.88C311.393 116.018 311.104 117.133 310.705 118.206C310.072 120.268 309.288 122.274 308.358 124.205C307.582 125.67 306.705 127.072 305.734 128.399C303.062 132.162 300.138 135.715 296.985 139.031C295.805 140.271 295.3 142.281 294.798 143.956C293.851 147.049 291.597 149.462 289.419 151.745C288.719 152.532 287.944 153.24 287.107 153.858C285.853 154.718 284.386 155.161 282.894 155.129C282.243 155.133 281.599 154.992 281.003 154.713C279.511 153.961 278.753 152.13 278.597 150.384C278.46 148.798 278.709 147.2 279.322 145.746C281.302 141.086 286.386 139.067 289.979 135.665C292.086 133.673 293.699 131.166 295.291 128.69C296.37 127.143 297.271 125.464 297.975 123.69C298.775 121.411 298.463 118.716 299.167 116.406C299.462 115.426 300.009 114.544 300.308 113.573C300.607 112.601 300.708 111.451 300.148 110.614C299.728 110.078 299.192 109.66 298.585 109.396C296.29 108.16 293.72 106.567 293.282 103.867C293.106 102.372 293.474 100.863 294.31 99.6458C295.141 98.4445 296.113 97.3613 297.204 96.4226C298.202 95.4646 299.891 94.4036 300.898 93.4814Z" fill="#FFC0C6"/>
<path d="M198.629 102.842C198.022 101.535 197.26 100.201 196.03 99.552C195.431 99.2776 194.786 99.136 194.134 99.136C193.482 99.136 192.837 99.2776 192.239 99.552C191.047 100.1 189.93 100.816 188.919 101.683L185.945 104.015C185.271 104.485 184.675 105.071 184.18 105.748C183.709 106.569 183.396 107.482 183.262 108.434C182.841 110.614 182.5 112.857 182.794 115.064C183.266 118.645 185.288 121.743 187.512 124.465C188.902 126.157 190.621 127.867 192.736 127.943C193.65 127.974 194.665 127.589 195.044 126.707C195.176 126.357 195.246 125.984 195.251 125.606C195.478 121.631 194.138 117.75 192.58 114.128C192.159 113.143 191.704 112.122 191.737 111.044C191.724 110.86 191.769 110.678 191.864 110.524C191.997 110.375 192.177 110.282 192.369 110.26C194.505 109.813 198.187 111.576 199.682 109.056C200.651 107.391 199.32 104.324 198.629 102.842Z" fill="#FFC0C6"/>
<path d="M242.586 44.6368C242.559 44.3107 242.605 43.9825 242.72 43.6788C243.061 43.0342 243.955 43.2312 244.629 43.3923C247.337 44.1175 250.193 43.4595 252.986 43.6296C255.779 43.7997 258.917 45.2815 259.482 48.1913C261.506 46.665 263.252 44.7597 264.633 42.5686C265.409 41.3331 266.083 39.9229 265.977 38.4456C265.826 36.3147 264.141 34.721 262.607 33.3736L257.974 29.3446C257.365 28.7496 256.662 28.2737 255.897 27.9389C254.823 27.5494 253.656 27.7374 252.527 27.7374C249.157 27.7374 245.543 26.1035 242.539 27.7374C241.275 28.4224 240.336 29.5997 239.426 30.7458L235.281 35.9566C234.97 36.2895 234.742 36.7006 234.62 37.1519C234.502 37.7875 234.809 38.4143 234.919 39.0544C235.113 40.2184 234.641 41.4629 235.003 42.5776C235.605 44.4354 237.729 44.6995 239.026 45.7649C239.506 46.1589 240.264 47.5064 240.842 47.4885C241.84 47.4661 242.548 45.4963 242.586 44.6368Z" fill="#3F3D56"/>
<path d="M214.404 83.2793C213.869 83.6483 213.399 84.1134 213.014 84.6536C212.53 85.4371 212.429 86.4443 212.012 87.2501C211.119 89.0139 209.025 89.6451 207.723 91.0911C207.512 91.2887 207.365 91.5518 207.302 91.8432C207.294 92.2369 207.418 92.6209 207.652 92.9265L213.945 103.438C216.051 103.635 218.048 102.238 220.146 102.426C220.925 102.493 221.73 102.78 222.479 102.533C223.015 102.28 223.518 101.953 223.975 101.562C225.239 100.72 226.89 100.622 227.939 99.5161C228.988 98.4104 229.076 96.7854 229.064 95.2768C229.082 93.9674 228.957 92.6602 228.689 91.3821C227.762 87.3531 224.86 84.2463 223.04 80.6739C222.151 78.9325 221.671 77.9163 219.796 79.1115C217.922 80.3068 216.178 81.9005 214.404 83.2793Z" fill="#3F3D56"/>
<path d="M290.822 77.9656C292.005 78.7817 293.071 79.7737 293.99 80.9112C294.946 82.2229 295.489 83.8345 296.412 85.1775C297.334 86.5205 298.518 87.4874 299.529 88.6872C301.067 90.5047 302.107 92.7161 303.126 94.9142C300.631 98.3648 297.912 101.626 294.988 104.673C294.662 105.081 294.232 105.379 293.75 105.533C293.423 105.57 293.092 105.521 292.788 105.388C292.483 105.256 292.215 105.046 292.006 104.776C291.551 104.275 291.231 103.648 290.797 103.124C289.774 102.004 288.412 101.305 286.951 101.15C285.502 101 284.043 100.978 282.591 101.083C282.272 101.123 281.949 101.066 281.66 100.917C281.445 100.76 281.271 100.548 281.154 100.3C279.469 97.2197 279.996 93.3518 280.598 89.8332L281.976 81.7752C282.177 80.2367 282.563 78.7321 283.126 77.2985C283.648 76.1122 284.811 74.0977 286.251 74.4559C287.692 74.814 289.605 77.0344 290.822 77.9656Z" fill="#3F3D56"/>
<path d="M170.696 137.035L141.677 143.342L141.015 143.275L115.513 140.54V106.195L146.732 100.586L169.378 103.393L169.386 103.545V103.617L170.696 137.035Z" fill="#6C63FF"/>
<path opacity="0.1" d="M170.696 137.035L141.677 143.342L141.016 143.275V108.066L169.386 103.545L170.696 137.035Z" fill="black"/>
<path opacity="0.05" d="M169.386 103.617L169.378 103.626L141.015 108.066L115.513 106.195L146.731 100.586L169.378 103.393L169.386 103.545V103.617Z" fill="black"/>
<path d="M185.861 103.012L156.841 109.325L156.18 109.253L130.678 106.518V72.1727L161.896 66.5635L184.542 69.3703L184.551 69.5225V69.5942L185.861 103.012Z" fill="#3F3D56"/>
<path opacity="0.1" d="M185.861 103.012L156.842 109.324L156.18 109.253V74.0439L184.551 69.5225L185.861 103.012Z" fill="black"/>
<path opacity="0.05" d="M184.551 69.5942L184.542 69.6031L156.18 74.044L130.678 72.1727L161.896 66.5635L184.542 69.3703L184.551 69.5225V69.5942Z" fill="black"/>
</g>
<defs>
<clipPath id="clip0">
<rect width="400" height="315" fill="white"/>
</clipPath>
</defs>
</svg>
