<svg width="100%" height="auto
" viewBox="0 0 324 230" fill="none" xmlns="http://www.w3.org/2000/svg">
<g clip-path="url(#clip0)">
<path d="M63.4952 38.6221C69.7413 38.6221 74.8048 33.6188 74.8048 27.447C74.8048 21.2752 69.7413 16.272 63.4952 16.272C57.249 16.272 52.1855 21.2752 52.1855 27.447C52.1855 33.6188 57.249 38.6221 63.4952 38.6221Z" fill="#2F2E41"/>
<path d="M29.0488 161.986L35.9972 138.175L38.3627 138.905C38.3627 138.905 35.5537 156.727 31.1186 161.256L29.0488 161.986Z" fill="#2F2E41"/>
<path d="M55.5114 34.1668C55.5114 34.1668 56.3984 43.5158 54.3287 46.1452C52.259 48.7747 55.6593 53.8874 55.6593 53.8874L61.8685 61.1914L71.0344 57.1012L72.365 49.5051L71.478 44.2462C71.478 44.2462 68.3734 41.1786 69.7039 35.6275C71.0344 30.0765 55.5114 34.1668 55.5114 34.1668Z" fill="#FFB9B9"/>
<path opacity="0.1" d="M55.5114 34.1668C55.5114 34.1668 56.3984 43.5158 54.3287 46.1452C52.259 48.7747 55.6593 53.8874 55.6593 53.8874L61.8685 61.1914L71.0344 57.1012L72.365 49.5051L71.478 44.2462C71.478 44.2462 68.3734 41.1786 69.7039 35.6275C71.0344 30.0765 55.5114 34.1668 55.5114 34.1668Z" fill="black"/>
<path d="M60.834 209.024V215.013L68.965 216.619L68.2258 206.686L60.834 209.024Z" fill="#FFB9B9"/>
<path d="M85.2275 206.686L83.4531 215.012L87.0014 217.496L93.2107 212.968L92.4715 205.809L85.2275 206.686Z" fill="#FFB9B9"/>
<path d="M69.7044 215.889C69.7044 215.889 66.5998 210.704 60.8341 213.954C60.8341 213.954 59.7993 219.687 58.7644 220.125C57.7295 220.564 51.9638 228.89 58.7644 229.621C65.5649 230.351 68.9652 228.16 68.9652 228.16C68.9652 228.16 67.6347 229.291 69.7044 228.707C71.7741 228.122 70.8871 224.909 70.8871 224.909L69.7044 215.889Z" fill="#2F2E41"/>
<path d="M89.9579 212.383C89.9579 212.383 85.3749 215.597 84.6358 214.136C83.8966 212.675 82.7139 212.821 82.7139 212.821C82.7139 212.821 78.5744 228.24 81.2355 228.971C82.949 229.388 84.7489 229.296 86.4098 228.707C86.4098 228.707 89.9579 226.251 89.9579 228.15C89.9579 230.049 99.8631 229.913 104.003 229.767C108.142 229.621 105.924 226.553 105.924 226.553L100.454 221.294L94.2452 212.383C94.2452 212.383 91.4363 209.9 89.9579 212.383Z" fill="#2F2E41"/>
<path d="M46.3457 114.656L52.5549 173.526C52.5549 173.526 55.9552 209.462 56.5465 210.046C57.1379 210.63 60.9817 212.529 69.4085 210.046L67.4866 163.008L71.0347 133.793L79.1658 153.952C79.1658 153.952 81.0877 208.147 82.4182 208.147C83.7488 208.147 91.8799 210.776 93.8018 207.563C95.7237 204.349 95.428 169.728 95.428 169.728C95.428 169.728 94.5409 115.095 88.0361 113.342C81.5312 111.589 46.3457 114.656 46.3457 114.656Z" fill="#2F2E41"/>
<path d="M63.4948 39.5715C69.1285 39.5715 73.6956 35.0588 73.6956 29.4921C73.6956 23.9253 69.1285 19.4126 63.4948 19.4126C57.861 19.4126 53.2939 23.9253 53.2939 29.4921C53.2939 35.0588 57.861 39.5715 63.4948 39.5715Z" fill="#FFB9B9"/>
<path d="M64.0862 57.5393C64.0862 57.5393 63.0514 51.2579 63.0514 50.0892C63.0514 48.9206 58.4684 48.1902 58.4684 48.1902C58.4684 48.1902 54.9203 44.2461 54.1811 44.8304C53.4419 45.4147 42.2062 52.8647 40.4321 53.8873C38.6581 54.9098 36.7362 59.2922 36.884 59.5844C37.0318 59.8765 46.1978 78.8668 46.1978 78.8668C46.1978 78.8668 50.1894 90.5531 47.3805 96.6885C44.5716 102.824 41.0235 114.948 46.1978 117.432C51.3721 119.915 76.5046 125.32 81.0876 120.645C85.6706 115.971 88.923 114.656 90.1058 114.656C91.2885 114.656 85.2271 94.3512 86.5576 92.4522C87.8882 90.5531 85.9663 78.7207 85.9663 78.7207L92.7668 59.8766C92.7668 59.8766 92.1755 49.3589 78.7222 47.0216L70.6739 43.1658L64.0862 57.5393Z" fill="black"/>
<path d="M36.4405 117.286C36.4405 117.286 35.7013 124.297 35.7013 126.342C35.7013 128.388 32.1532 140.366 37.3275 141.827C42.5018 143.288 42.0584 125.904 42.0584 125.904V116.993L36.4405 117.286Z" fill="#FFB9B9"/>
<path d="M97.7933 110.712C97.7933 110.712 98.6804 117.432 98.2368 118.893C97.7933 120.353 102.524 133.062 96.1671 133.793C89.8101 134.523 91.4363 118.6 91.4363 118.6V110.712L97.7933 110.712Z" fill="#FFB9B9"/>
<path d="M35.1099 159.648L39.3972 137.152H40.7277C41.658 138.337 42.2682 139.737 42.5009 141.219C42.7337 142.701 42.5814 144.217 42.0583 145.625C40.2842 150.592 38.8058 159.648 38.8058 159.648H35.1099Z" fill="#2F2E41"/>
<path d="M39.1018 57.8315L36.8842 59.5845C36.8842 59.5845 33.9275 106.038 34.6666 109.544C35.4058 113.049 32.0056 118.016 34.9623 118.454C37.9191 118.893 41.4672 120.792 43.0934 119.623C44.7197 118.454 45.0153 114.218 45.6067 113.196C46.198 112.173 47.2329 100.048 47.2329 100.048C47.2329 100.048 50.3375 87.9238 48.4156 78.8669C46.4937 69.81 44.7196 60.607 44.7196 60.607L39.1018 57.8315Z" fill="black"/>
<path d="M85.9662 54.1794L92.7668 59.8765L97.9411 89.6767C97.9411 89.6767 101.194 112.903 98.6803 113.195C96.1671 113.488 92.3233 112.757 90.6971 113.195C89.0708 113.634 87.7403 112.465 87.7403 112.465C87.7403 112.465 85.9662 103.116 85.9662 102.97C85.9662 102.824 84.7836 92.16 84.7836 92.16L83.3052 80.1815L85.5227 67.0344L85.9662 54.1794Z" fill="black"/>
<path d="M53.8853 192.078C53.8853 192.078 52.9244 194.805 51.5997 198.519C50.9847 200.245 50.2914 202.187 49.5773 204.166C49.1175 205.446 48.6504 206.741 48.1906 208.006C47.4573 210.03 46.7447 211.973 46.1223 213.641C45.3003 215.842 44.6336 217.567 44.2758 218.372C42.6496 222.024 12.9341 216.181 10.5687 214.72C8.2033 213.259 7.61195 208.293 7.31627 201.281C7.31479 201.244 7.31331 201.208 7.31331 201.171C7.27487 199.756 7.64003 197.648 8.25062 195.175C8.55515 193.939 8.92179 192.613 9.32983 191.235C9.87684 189.387 10.4978 187.45 11.1467 185.522C13.935 177.239 17.2214 169.144 17.2214 169.144C17.2214 169.144 22.9871 165.199 25.0568 162.57C27.1266 159.941 38.5102 157.896 38.5102 157.896C41.7626 158.042 49.1545 170.458 52.1113 174.256C55.068 178.054 53.8853 192.078 53.8853 192.078Z" fill="#3F3D56"/>
<path d="M37.3276 169.874C38.0624 169.874 38.6582 169.285 38.6582 168.559C38.6582 167.833 38.0624 167.245 37.3276 167.245C36.5928 167.245 35.9971 167.833 35.9971 168.559C35.9971 169.285 36.5928 169.874 37.3276 169.874Z" fill="#2F2E41"/>
<path d="M39.3974 170.751C39.8056 170.751 40.1366 170.424 40.1366 170.02C40.1366 169.617 39.8056 169.29 39.3974 169.29C38.9892 169.29 38.6582 169.617 38.6582 170.02C38.6582 170.424 38.9892 170.751 39.3974 170.751Z" fill="#2F2E41"/>
<path d="M51.6 198.519C50.985 200.246 50.2916 202.187 49.5775 204.166L9.33008 191.235C9.87709 189.387 10.498 187.45 11.147 185.522L51.6 198.519Z" fill="#F2F2F2"/>
<path d="M48.1911 208.007C47.4578 210.03 46.7452 211.973 46.1228 213.641L7.3138 201.172C7.27536 199.756 7.64052 197.648 8.25111 195.175L48.1911 208.007Z" fill="#F2F2F2"/>
<path d="M37.3276 168.852C37.3276 168.852 40.2844 181.707 38.5103 193.101C36.7363 204.495 42.9455 215.159 42.9455 215.159" stroke="#2F2E41" stroke-width="3" stroke-miterlimit="10"/>
<path d="M39.3972 169.874C39.3972 169.874 33.6315 190.617 33.4837 193.539C33.3359 196.46 30.9704 217.35 28.0137 219.541" stroke="#2F2E41" stroke-width="3" stroke-miterlimit="10"/>
<path d="M55.6637 23.3415C55.6637 23.3415 53.3546 17.4095 56.7027 15.4702L57.6264 18.0939C57.6264 18.0939 66.0543 13.0745 68.2479 14.2153L66.1698 16.9532C66.1698 16.9532 75.9832 16.9532 76.6759 20.7178L73.2123 20.8318C73.2123 20.8318 76.9068 23.2275 77.0222 27.1061L69.6333 27.5624L73.2123 29.6158C73.2123 29.6158 59.82 31.4411 56.5873 26.1935L55.6637 23.3415Z" fill="#2F2E41"/>
<path d="M53.6636 23.5759C53.6636 23.5759 56.3247 28.8347 59.8728 27.52C63.4209 26.2053 59.8728 21.3847 59.8728 21.3847L57.5074 20.2161L53.6636 23.5759Z" fill="#2F2E41"/>
<path d="M283.135 106.54L234.882 46.9583C232.691 48.9382 229.991 50.2851 227.078 50.8518C217.994 52.6196 209.122 46.4899 207.263 37.1608C206.622 34.0755 206.846 30.8759 207.91 27.9072C208.975 24.9385 210.84 22.3135 213.304 20.3155L196.851 0L103.116 79.1577L189.4 185.697L283.135 106.54Z" fill="#F2F2F2"/>
<path d="M223.178 48.0212C230.691 48.0212 236.782 42.0032 236.782 34.5796C236.782 27.156 230.691 21.1379 223.178 21.1379C215.665 21.1379 209.575 27.156 209.575 34.5796C209.575 42.0032 215.665 48.0212 223.178 48.0212Z" fill="#F2F2F2"/>
<path d="M138.059 94.473L133.897 99.2327L147.92 111.205L152.082 106.446L138.059 94.473Z" fill="#6C63FF"/>
<path d="M228.203 179.593L224.041 184.352L236.471 194.965L240.633 190.205L228.203 179.593Z" fill="#6C63FF"/>
<path d="M250.662 144.141V144.51C250.654 145.437 250.627 146.359 250.581 147.278C249.772 162.995 242.91 177.812 231.401 188.691C219.893 199.57 204.609 205.688 188.682 205.791C172.755 205.894 157.391 199.974 145.739 189.245C134.087 178.515 127.03 163.789 126.013 148.083C125.928 146.779 125.885 145.465 125.885 144.141C125.863 131.373 129.873 118.916 137.357 108.508C137.956 107.669 138.578 106.846 139.225 106.038C139.67 105.476 140.129 104.927 140.591 104.381C151.123 92.0533 166.125 84.2949 182.38 82.7708C198.634 81.2467 214.845 86.0783 227.536 96.2291C228.287 96.8288 229.026 97.4494 229.747 98.0827C230.324 98.5901 230.892 99.1087 231.449 99.6385C242.427 110.014 249.184 123.999 250.446 138.958C250.59 140.669 250.662 142.396 250.662 144.141Z" fill="#3F3D56"/>
<path d="M188.274 213.545C149.543 213.545 118.034 182.411 118.034 144.141C118.011 126.632 124.708 109.765 136.775 96.9431L138.331 98.3695C126.628 110.804 120.133 127.161 120.156 144.141C120.156 181.254 150.713 211.448 188.274 211.448C197.4 211.479 206.438 209.683 214.842 206.168C223.247 202.653 230.844 197.492 237.175 190.998L238.699 192.457C232.17 199.154 224.337 204.476 215.67 208.1C207.004 211.724 197.684 213.577 188.274 213.545Z" fill="#6C63FF"/>
<path d="M198.46 212.077H180.634V229.691H198.46V212.077Z" fill="#6C63FF"/>
<path d="M139.225 106.038C139.255 106.05 139.284 106.067 139.309 106.088C139.645 106.361 139.225 106.885 139.276 107.317C139.335 107.87 140.082 107.992 140.646 108.047C141.211 108.105 141.924 108.554 141.656 109.049C140.239 109.531 138.804 109.057 137.357 108.508C129.873 118.916 125.863 131.373 125.885 144.141C125.885 145.466 125.928 146.78 126.013 148.083C126.131 148.168 126.261 148.238 126.399 148.288C126.823 148.448 127.316 148.418 127.706 148.645C128.016 148.825 128.224 149.144 128.534 149.312C129.421 149.79 130.652 148.871 131.479 149.442C131.693 149.634 131.896 149.839 132.086 150.054C132.85 150.708 134.106 150.268 134.989 150.758C135.558 151.073 135.851 151.702 136.156 152.272C136.916 153.698 138.147 155.099 139.772 155.212C140.285 155.189 140.798 155.206 141.308 155.262C141.809 155.376 142.302 155.808 142.221 156.307C142.081 157.166 142.51 158.106 142.395 158.965C142.187 160.538 139.933 161.226 139.742 162.798C139.742 163.144 139.722 163.49 139.683 163.834C139.581 164.245 139.267 164.581 139.157 164.992C138.944 165.767 139.509 166.543 140.124 167.063C140.744 167.587 141.482 168.04 141.822 168.77C142.178 169.546 142.005 170.447 142.119 171.29C142.374 173.131 143.982 174.494 145.637 175.375C146.168 175.594 146.639 175.933 147.013 176.365C147.437 176.973 147.395 177.774 147.539 178.499C147.887 180.273 149.398 181.737 149.44 183.544C149.47 184.831 148.748 185.997 148.315 187.209C147.87 188.48 147.738 189.837 147.929 191.168C150.349 193.196 152.921 195.039 155.624 196.683C155.771 196.468 155.879 196.23 155.942 195.978C155.993 195.7 155.958 195.413 155.841 195.156C155.723 194.898 155.529 194.682 155.284 194.535C155.74 194.365 156.155 194.102 156.502 193.764C156.673 193.591 156.785 193.37 156.825 193.131C156.864 192.893 156.829 192.648 156.723 192.43C157.47 192.523 158.357 192.569 158.849 192.003C159.244 191.55 159.219 190.87 159.062 190.296C158.846 189.737 158.703 189.154 158.637 188.56C160.368 188.643 162.102 188.585 163.823 188.388C163.574 187.558 163.008 186.857 162.245 186.433C163.026 186.303 163.734 185.381 163.98 184.639C164.193 183.881 164.205 183.083 164.014 182.319C163.955 182.123 163.947 181.916 163.989 181.716C164.115 181.45 164.335 181.239 164.609 181.124C165.899 180.39 167.189 179.658 168.479 178.927C168.709 178.812 168.919 178.661 169.099 178.478C169.502 178.004 169.443 177.296 169.235 176.713C169.027 176.13 168.696 175.58 168.615 174.968C168.377 173.135 170.364 171.819 171.034 170.091C171.262 169.401 171.385 168.682 171.399 167.956C171.454 167.176 171.459 166.275 170.856 165.776C170.274 165.293 169.37 165.402 168.764 164.954C168.208 164.543 168.017 163.75 167.41 163.419C166.858 163.117 166.17 163.31 165.555 163.167C164.477 162.92 163.798 161.691 162.695 161.578C162.075 161.511 161.37 161.813 160.861 161.456C160.411 161.138 160.394 160.504 160.309 159.968C160.159 159.131 159.752 158.361 159.146 157.76C158.539 157.159 157.76 156.755 156.914 156.604C156.273 156.504 155.577 156.541 155.03 156.193C154.478 155.841 154.228 155.183 153.79 154.692C153.094 153.908 151.991 153.627 150.96 153.388C149.559 153.065 148.16 152.741 146.762 152.415C146.019 152.239 145.06 152.146 144.657 152.792C144.538 153.038 144.455 153.299 144.411 153.568C144.259 154.052 143.957 154.476 143.547 154.781C143.137 155.085 142.64 155.253 142.128 155.262C141.777 154.67 141.208 154.235 140.54 154.046C140.104 153.974 139.673 153.873 139.25 153.744C139.029 153.637 138.833 153.487 138.673 153.303C138.513 153.118 138.393 152.903 138.319 152.671C138.246 152.439 138.222 152.195 138.248 151.953C138.273 151.712 138.349 151.478 138.469 151.266C138.71 150.84 138.802 150.348 138.733 149.866C138.663 149.383 138.435 148.936 138.083 148.595C137.37 147.961 136.339 147.806 135.379 147.869C135.129 147.328 135.549 146.72 135.999 146.326C136.453 145.936 137.001 145.55 137.098 144.963C137.255 144.04 136.063 143.34 135.159 143.613C134.255 143.889 133.678 144.757 133.296 145.613C133.11 146.118 132.858 146.596 132.544 147.035C132.384 147.252 132.166 147.42 131.914 147.523C131.662 147.625 131.387 147.656 131.118 147.613C130.371 147.424 130.087 146.548 129.922 145.81C129.656 144.823 129.522 143.807 129.523 142.786C129.529 141.756 129.943 140.768 130.677 140.035C131.912 138.911 133.813 139.02 135.481 139.201C135.303 138.965 135.217 138.674 135.24 138.38C135.264 138.087 135.395 137.812 135.609 137.607C135.832 137.411 136.1 137.272 136.39 137.202C136.68 137.132 136.983 137.133 137.272 137.205C137.775 137.308 138.228 137.575 138.558 137.964C139.034 138.534 139.169 139.31 139.526 139.956C139.887 140.606 140.693 141.159 141.351 140.811C141.924 140.509 142.013 139.729 141.873 139.104C141.729 138.484 141.427 137.876 141.478 137.238C141.576 136.026 142.853 135.292 143.978 134.793C145.103 134.294 146.389 133.619 146.567 132.411C146.575 132.176 146.621 131.944 146.703 131.724C146.827 131.527 147.001 131.365 147.208 131.254C150.489 129.111 153.829 126.939 157.58 125.769C157.776 125.706 157.797 125.773 157.996 125.727C158.276 125.567 158.09 125.127 157.822 124.951C157.555 124.775 157.198 124.636 157.131 124.326C157.084 124.1 157.22 123.873 157.254 123.643C157.262 123.503 157.237 123.364 157.178 123.237C157.12 123.11 157.031 122.999 156.919 122.913C156.807 122.828 156.676 122.771 156.537 122.748C156.398 122.724 156.255 122.735 156.12 122.779C155.819 122.384 156.413 121.927 156.897 121.793C158.346 121.401 159.832 121.162 161.332 121.08C161.505 121.052 161.683 121.082 161.837 121.164C161.948 121.269 162.013 121.412 162.02 121.563C162.027 121.715 161.975 121.863 161.875 121.978C161.671 122.202 161.445 122.405 161.201 122.586C160.957 122.819 160.783 123.115 160.698 123.439C160.613 123.764 160.619 124.106 160.717 124.427C161.502 124.821 162.351 125.228 163.221 125.089C164.087 124.951 164.855 123.986 164.447 123.219C164.07 122.502 162.928 122.338 162.733 121.554C162.504 120.636 163.819 119.818 163.522 118.921C163.395 118.526 162.996 118.292 162.69 118.011C162.331 117.661 162.086 117.212 161.988 116.723C161.891 116.233 161.945 115.726 162.143 115.268C161.646 115.354 161.136 115.321 160.654 115.172C160.173 115.023 159.734 114.763 159.376 114.412C158.714 113.754 158.187 112.71 157.245 112.743C156.384 112.769 155.641 113.762 154.834 113.46C154.635 113.385 154.427 113.234 154.236 113.322C154.173 113.362 154.12 113.416 154.081 113.479C154.042 113.542 154.018 113.613 154.011 113.687C153.807 114.656 154.16 115.759 153.625 116.597C153.043 117.507 151.698 117.633 150.994 118.455C150.612 118.9 150.463 119.499 150.111 119.969C149.758 120.439 149.016 120.741 148.591 120.33C148.799 119.909 148.856 119.43 148.753 118.973C148.649 118.516 148.392 118.107 148.023 117.813C147.632 117.56 147.21 117.357 146.766 117.21C146.271 117.003 145.8 116.744 145.362 116.438C145.143 116.306 144.965 116.118 144.848 115.893C144.755 115.61 144.767 115.304 144.882 115.029C145.097 114.423 145.475 113.887 145.975 113.478C146.475 113.068 147.079 112.801 147.721 112.706C148.282 112.63 148.935 112.655 149.309 112.232C149.504 112.01 149.606 111.67 149.894 111.582C150.076 111.544 150.265 111.566 150.433 111.645C151.134 111.888 151.83 112.131 152.53 112.374C152.763 112.48 153.021 112.522 153.277 112.496C153.403 112.48 153.519 112.417 153.6 112.319C153.682 112.222 153.722 112.098 153.714 111.972C153.646 111.628 153.111 111.464 153.162 111.116C153.187 111.003 153.248 110.9 153.336 110.823C154.093 110.027 155.019 109.407 156.047 109.006C157.075 108.605 158.179 108.433 159.282 108.504C159.545 108.936 159.129 109.443 158.777 109.808C158.429 110.177 158.149 110.831 158.573 111.112C158.745 111.201 158.936 111.244 159.129 111.238C159.646 111.306 160.147 111.456 160.615 111.682C161.341 111.993 162.054 112.337 162.75 112.706C162.647 112.256 162.665 111.788 162.801 111.347C162.877 111.131 163.033 110.95 163.237 110.841C163.441 110.731 163.679 110.701 163.904 110.756C164.32 110.915 164.532 111.46 164.978 111.51C165.568 111.578 165.801 110.714 165.555 110.177C165.309 109.64 164.817 109.196 164.778 108.604C164.749 108.21 164.901 107.719 164.583 107.48C164.47 107.406 164.34 107.36 164.205 107.346C161.54 106.864 158.873 106.38 156.205 105.895C155.73 105.807 155.047 105.874 155.025 106.348C155.013 106.617 155.255 106.881 155.149 107.124C155.034 107.384 154.66 107.363 154.389 107.455C154.185 107.547 154.016 107.701 153.909 107.896C153.802 108.09 153.762 108.314 153.795 108.533C153.867 108.969 154.038 109.383 154.295 109.745C153.773 109.531 152.988 109.493 152.466 109.275C152.39 108.678 152.236 108.093 152.008 107.535C151.995 107.446 151.962 107.361 151.912 107.286C151.863 107.211 151.797 107.148 151.719 107.101C151.642 107.053 151.555 107.024 151.465 107.013C151.375 107.003 151.283 107.012 151.197 107.04C150.51 107.145 149.822 107.246 149.135 107.35C148.962 107.359 148.797 107.422 148.664 107.531C148.396 107.812 148.659 108.26 148.651 108.646C148.626 108.862 148.534 109.065 148.387 109.226C148.24 109.388 148.046 109.5 147.832 109.548C147.4 109.635 146.954 109.629 146.524 109.531C145.561 109.384 144.602 109.238 143.639 109.091C144.489 108.823 145.245 108.323 145.82 107.648C146.202 107.204 146.406 106.373 145.854 106.164C145.691 106.119 145.521 106.107 145.353 106.126C144.046 106.134 143.015 105.057 141.792 104.599C141.408 104.458 141.001 104.384 140.591 104.381L139.225 106.038Z" fill="#1F1F47"/>
<path d="M250.581 147.278C250.432 147.476 250.235 147.635 250.009 147.741C249.782 147.847 249.533 147.897 249.283 147.886C247.954 147.772 247.394 145.881 246.078 145.667C245.962 145.638 245.839 145.65 245.73 145.701C245.535 145.806 245.501 146.066 245.489 146.284C245.433 147.366 245.387 148.49 245.815 149.488C246.439 150.947 248.056 152.172 247.717 153.719C245.892 152.884 244.941 150.859 244.512 148.917C244.079 146.976 244.012 144.938 243.239 143.101C242.649 143.843 241.418 143.231 240.884 142.451C240.374 141.713 240.06 140.857 239.568 140.107C239.076 139.36 238.32 138.689 237.42 138.647C236.474 138.605 235.651 139.247 234.929 139.855C234.302 140.313 233.775 140.892 233.38 141.558C232.875 142.564 233.007 143.747 232.981 144.866C232.956 146.074 232.697 147.353 231.861 148.242C231.025 149.127 229.484 149.437 228.563 148.636C228.118 148.178 227.8 147.613 227.642 146.997C226.641 144.113 225.808 141.176 225.147 138.198C224.994 138.878 224.387 139.754 223.81 139.356C223.681 139.247 223.576 139.113 223.504 138.962C222.426 137.163 220.436 136.081 218.42 135.431C216.408 134.785 214.29 134.483 212.3 133.77C211.183 133.369 210.117 132.845 209.121 132.206C208.868 132.574 208.72 133.003 208.693 133.447C208.666 133.892 208.761 134.335 208.968 134.73C209.192 135.117 209.538 135.42 209.954 135.593C210.37 135.765 210.832 135.796 211.268 135.682C211.71 135.54 212.083 135.238 212.52 135.087C212.957 134.94 213.547 135.011 213.738 135.431C213.925 135.829 213.645 136.311 213.785 136.731C213.993 137.364 214.965 137.414 215.304 137.993C215.404 138.222 215.427 138.477 215.37 138.72C215.313 138.963 215.178 139.181 214.986 139.343C214.596 139.658 214.165 139.92 213.704 140.123C212.278 140.908 211.264 142.245 210.016 143.285C208.769 144.33 207.007 145.089 205.522 144.422C205.874 142.648 203.739 141.348 203.345 139.582C203.213 138.999 203.281 138.383 203.098 137.817C202.831 136.995 202.093 136.433 201.49 135.812C200.758 135.05 200.187 134.151 199.812 133.168C199.436 132.185 199.264 131.138 199.304 130.088C199.338 129.358 199.474 128.616 199.304 127.903C199.139 127.194 198.54 126.507 197.802 126.536C196.117 126.612 193.991 126.737 193.108 125.316C192.789 124.808 192.654 124.066 193.112 123.676C193.291 123.564 193.491 123.488 193.7 123.453C193.909 123.417 194.123 123.423 194.33 123.471C195.599 123.592 196.864 123.718 198.133 123.84C199.02 123.923 199.979 123.995 200.743 123.538C201.507 123.081 201.838 121.86 201.129 121.319C200.616 120.925 199.69 120.946 199.538 120.321C199.415 119.797 200 119.206 199.682 118.765C199.457 118.455 198.948 118.539 198.638 118.774C198.367 119.051 198.074 119.305 197.759 119.533C197.152 119.843 196.431 119.545 195.777 119.344C195.124 119.143 194.249 119.126 193.935 119.726C193.579 120.392 194.245 121.273 193.897 121.944C193.43 122.829 191.86 122.326 191.206 123.089C190.459 123.961 191.716 125.27 191.465 126.385C191.143 126.543 190.785 126.616 190.425 126.596C190.066 126.576 189.718 126.464 189.415 126.272C189.118 126.072 188.882 125.797 188.731 125.475C188.58 125.153 188.52 124.796 188.558 124.443C188.618 123.94 188.885 123.424 188.707 122.951C188.514 122.585 188.197 122.298 187.811 122.141C186.58 121.466 185.35 120.794 184.119 120.124C183.775 120.753 184.208 121.529 184.751 122.003C185.29 122.472 185.969 122.829 186.326 123.45C186.551 123.88 186.602 124.379 186.468 124.845C186.334 125.311 186.025 125.709 185.604 125.957C185.551 125.994 185.49 126.018 185.427 126.029C185.363 126.04 185.297 126.037 185.235 126.02C185.176 125.986 185.125 125.941 185.084 125.887C185.043 125.833 185.014 125.771 184.997 125.706C184.348 124.058 183.368 122.435 181.806 121.575C180.24 120.711 177.994 120.891 176.967 122.338C176.726 122.682 176.56 123.076 176.348 123.441C175.223 125.374 172.804 126.289 170.546 126.23C170.325 126.244 170.105 126.193 169.914 126.083C169.549 125.836 169.566 125.307 169.621 124.871C169.702 124.255 169.778 123.642 169.859 123.026C169.861 122.65 170.008 122.288 170.27 122.015C170.69 121.688 171.293 121.894 171.828 121.885C172.231 121.868 172.62 121.727 172.939 121.483C173.259 121.239 173.495 120.904 173.615 120.522C173.722 120.138 173.721 119.731 173.612 119.347C173.503 118.962 173.289 118.615 172.995 118.342C172.753 118.115 172.426 117.83 172.554 117.524C172.605 117.44 172.675 117.367 172.758 117.312C172.841 117.257 172.935 117.221 173.033 117.205C173.988 116.933 175.002 116.861 175.94 116.534C176.883 116.211 177.795 115.549 178.02 114.588C178.088 114.295 178.118 113.938 178.385 113.792C178.52 113.738 178.664 113.71 178.809 113.708C179.32 113.636 179.784 113.377 180.112 112.984C180.439 112.59 180.606 112.09 180.579 111.582C181.029 111.271 181.661 111.502 182.099 111.833C182.531 112.165 182.918 112.601 183.448 112.743C184.437 113.012 185.392 112.144 186.419 112.139C186.852 112.139 187.298 112.29 187.701 112.144C188.112 111.997 188.359 111.594 188.673 111.296C188.991 110.995 189.543 110.814 189.836 111.137C189.751 110.529 189.67 109.925 189.585 109.321C190.085 109.446 190.606 109.463 191.114 109.372C191.621 109.281 192.103 109.083 192.526 108.793C191.457 108.436 190.392 108.08 189.322 107.723C189.21 107.696 189.106 107.641 189.021 107.564C188.787 107.317 189.021 106.931 189.207 106.65C189.662 105.975 189.738 104.863 188.991 104.528C188.482 104.297 187.9 104.574 187.412 104.842C186.631 105.27 185.85 105.702 185.069 106.13C184.997 106.57 185.541 106.822 185.876 107.115C186.08 107.295 186.225 107.531 186.291 107.792C186.357 108.054 186.341 108.33 186.245 108.583C186.15 108.835 185.979 109.054 185.755 109.209C185.532 109.364 185.266 109.448 184.993 109.451C185.147 109.65 185.254 109.88 185.306 110.124C185.358 110.369 185.354 110.622 185.294 110.864C184.772 110.902 184.246 110.94 183.72 110.978C183.632 110.995 183.542 110.995 183.455 110.978C183.368 110.96 183.285 110.926 183.211 110.877C183.041 110.73 183.066 110.47 183.024 110.252C182.954 109.992 182.807 109.758 182.601 109.58C182.395 109.403 182.14 109.291 181.869 109.258C181.329 109.198 180.781 109.248 180.261 109.405C180.035 109.484 179.787 109.478 179.565 109.388C179.439 109.306 179.343 109.185 179.293 109.044C179.201 108.757 179.185 108.451 179.248 108.155C179.31 107.86 179.449 107.586 179.65 107.359C180.057 106.911 180.506 106.503 180.991 106.138C182.089 105.188 182.896 103.954 183.321 102.574C184.187 102.213 185.082 101.727 185.952 101.366C186.652 101.046 187.385 100.802 188.138 100.64C188.847 100.534 189.565 100.5 190.281 100.54C191.257 100.557 192.238 100.573 193.214 100.594C194.085 100.558 194.956 100.682 195.782 100.959C196.584 101.286 197.292 101.995 197.348 102.851C197.364 102.948 197.356 103.048 197.322 103.141C197.289 103.235 197.232 103.318 197.157 103.383C197.044 103.445 196.916 103.474 196.787 103.467C195.977 103.492 195.633 103.693 194.822 103.723C195.336 104.264 195.913 104.834 196.66 104.931C197.976 105.098 198.922 103.752 199.529 102.582C199.551 102.88 199.689 103.158 199.915 103.356C200.141 103.554 200.437 103.657 200.739 103.643C201.064 103.588 201.374 103.468 201.651 103.291C204.262 101.881 207.186 101.135 210.161 101.119C210.131 100.896 210.187 100.671 210.316 100.486C210.446 100.302 210.64 100.172 210.861 100.12C211.468 100.003 212.011 100.519 212.304 101.056C212.592 101.592 212.775 102.213 213.242 102.616C213.704 103.018 214.6 102.997 214.782 102.419C214.961 101.861 214.371 101.383 213.883 101.051C213.39 100.724 212.877 100.116 213.208 99.6298C215.703 99.0805 218.22 98.5353 220.779 98.4263C221.214 98.4393 221.647 98.3651 222.053 98.2082C222.253 98.1242 222.42 97.9772 222.528 97.7899C222.635 97.6027 222.677 97.3856 222.647 97.1724C222.088 97.3012 221.504 97.2631 220.967 97.063C220.431 96.8629 219.966 96.5098 219.633 96.0485C222.261 95.8346 225.011 95.6459 227.536 96.2288L229.747 98.0824C229.327 98.5143 228.767 98.9211 229.072 99.3531C229.173 99.4523 229.295 99.5276 229.43 99.5733C229.564 99.6191 229.708 99.6341 229.849 99.6172C230.384 99.6256 230.919 99.6382 231.449 99.6382C242.427 110.014 249.183 123.999 250.446 138.957C249.554 138.924 248.735 140.039 248.85 141.012C248.986 142.14 249.809 143.046 250.399 144.019C250.497 144.177 250.585 144.341 250.662 144.51L250.581 147.278Z" fill="#1F1F47"/>
<path d="M0 229.639H324" stroke="#3F3D56" stroke-width="2" stroke-miterlimit="10"/>
<path d="M133.669 28.8509C136.642 28.8509 139.053 26.4692 139.053 23.5312C139.053 20.5931 136.642 18.2114 133.669 18.2114C130.696 18.2114 128.285 20.5931 128.285 23.5312C128.285 26.4692 130.696 28.8509 133.669 28.8509Z" stroke="#3F3D56" stroke-width="2" stroke-miterlimit="10"/>
<path d="M292.75 130.158C295.723 130.158 298.134 127.776 298.134 124.838C298.134 121.9 295.723 119.519 292.75 119.519C289.777 119.519 287.366 121.9 287.366 124.838C287.366 127.776 289.777 130.158 292.75 130.158Z" stroke="#3F3D56" stroke-width="2" stroke-miterlimit="10"/>
<path d="M255.996 77.1609C258.969 77.1609 261.38 74.7792 261.38 71.8412C261.38 68.9032 258.969 66.5215 255.996 66.5215C253.023 66.5215 250.612 68.9032 250.612 71.8412C250.612 74.7792 253.023 77.1609 255.996 77.1609Z" stroke="#3F3D56" stroke-width="2" stroke-miterlimit="10"/>
<path d="M220.673 122.751C224.01 122.751 226.715 120.078 226.715 116.781C226.715 113.484 224.01 110.811 220.673 110.811C217.336 110.811 214.631 113.484 214.631 116.781C214.631 120.078 217.336 122.751 220.673 122.751Z" fill="#3F3D56"/>
<path d="M240.081 105.462C244.479 105.462 248.045 101.939 248.045 97.5926C248.045 93.2464 244.479 89.7231 240.081 89.7231C235.682 89.7231 232.117 93.2464 232.117 97.5926C232.117 101.939 235.682 105.462 240.081 105.462Z" fill="white"/>
<path d="M248.135 89.4345C245.997 87.3741 243.119 86.237 240.133 86.2736C237.147 86.3101 234.298 87.5172 232.212 89.6294C227.87 94.0277 221.67 116.24 221.67 116.24C221.67 116.24 243.99 109.566 248.332 105.168C250.417 103.055 251.568 100.211 251.531 97.2607C251.494 94.3102 250.272 91.495 248.135 89.4345V89.4345ZM236.437 101.283C235.698 100.571 235.19 99.6587 234.976 98.6611C234.762 97.6635 234.852 96.6256 235.235 95.6788C235.618 94.7319 236.277 93.9185 237.128 93.3415C237.979 92.7646 238.984 92.4499 240.016 92.4372C241.048 92.4246 242.06 92.7146 242.925 93.2706C243.791 93.8266 244.469 94.6236 244.876 95.5608C245.283 96.498 245.399 97.5333 245.21 98.5358C245.022 99.5384 244.536 100.463 243.815 101.193C242.849 102.172 241.529 102.731 240.145 102.748C238.761 102.765 237.427 102.238 236.437 101.283V101.283Z" fill="black"/>
</g>
<defs>
<clipPath id="clip0">
<rect width="324" height="230" fill="white"/>
</clipPath>
</defs>
</svg>
