<svg width="184" height="129" viewBox="0 0 184 129" fill="none" xmlns="http://www.w3.org/2000/svg">
<path d="M41.4682 35.843V49.4226C41.4682 51.6788 40.7602 53.463 39.3442 54.7751C37.9376 56.0873 36.0118 56.7434 33.5669 56.7434C31.1596 56.7434 29.248 56.1062 27.832 54.8318C26.416 53.5574 25.6938 51.8062 25.6655 49.5784V35.843H29.9135V49.4509C29.9135 50.8009 30.2345 51.7874 30.8764 52.4104C31.5278 53.024 32.4246 53.3308 33.5669 53.3308C35.9552 53.3308 37.1683 52.0753 37.206 49.5642V35.843H41.4682ZM61.7172 56.4602H57.4692L49.1997 42.8948V56.4602H44.9516V35.843H49.1997L57.4834 49.4368V35.843H61.7172V56.4602ZM69.9443 56.4602H65.6963V35.843H69.9443V56.4602Z" fill="#FEFEFE"/>
<path d="M87.4867 56.4602H83.2387V47.6243H74.955V56.4602H70.7069V35.843H74.955V44.1975H83.2387V35.843H87.4867V56.4602ZM103.615 47.5251H95.4589V53.0476H105.031V56.4602H91.2108V35.843H105.003V39.2839H95.4589V44.1975H103.615V47.5251ZM111.771 53.0476H120.791V56.4602H107.523V35.843H111.771V53.0476ZM127.489 49.196V56.4602H123.241V35.843H131.284C132.832 35.843 134.192 36.1262 135.362 36.6926C136.542 37.259 137.448 38.0662 138.081 39.114C138.713 40.1524 139.03 41.3372 139.03 42.6682C139.03 44.6884 138.336 46.2838 136.948 47.4543C135.57 48.6155 133.658 49.196 131.213 49.196H127.489ZM127.489 45.7551H131.284C132.407 45.7551 133.262 45.4908 133.847 44.9622C134.442 44.4335 134.739 43.6783 134.739 42.6965C134.739 41.6864 134.442 40.8699 133.847 40.2468C133.252 39.6238 132.431 39.3028 131.383 39.2839H127.489V45.7551Z" fill="white"/>
<path d="M29.4106 69.3723H28.9263V66.6458H25.6763V69.3723H25.1958V63.6848H25.6763V66.2395H28.9263V63.6848H29.4106V69.3723ZM30.4927 67.1965C30.4927 66.7903 30.5708 66.4244 30.7271 66.0989C30.8859 65.7734 31.1086 65.5208 31.395 65.3411C31.6841 65.1588 32.0109 65.0676 32.3755 65.0676C32.938 65.0676 33.3937 65.2655 33.7427 65.6614C34.0916 66.0546 34.2661 66.5767 34.2661 67.2278V67.3254C34.2661 67.7343 34.1867 68.1028 34.0278 68.4309C33.8716 68.7564 33.6502 69.0077 33.3638 69.1848C33.0773 69.3619 32.7505 69.4504 32.3833 69.4504C31.8234 69.4504 31.3677 69.2538 31.0161 68.8606C30.6672 68.4648 30.4927 67.9413 30.4927 67.2903V67.1965ZM30.9614 67.3254C30.9614 67.8306 31.0916 68.246 31.3521 68.5715C31.6151 68.8944 31.9588 69.0559 32.3833 69.0559C32.8052 69.0559 33.1463 68.8944 33.4067 68.5715C33.6698 68.246 33.8013 67.8176 33.8013 67.2864V67.1965C33.8013 66.8736 33.7414 66.578 33.6216 66.3098C33.5018 66.0416 33.3338 65.8346 33.1177 65.6887C32.9015 65.5403 32.6541 65.4661 32.3755 65.4661C31.9588 65.4661 31.619 65.6301 31.356 65.9583C31.0929 66.2838 30.9614 66.7109 30.9614 67.2395V67.3254ZM35.6606 65.1458L35.6763 65.8333C35.8325 65.578 36.0278 65.3866 36.2622 65.259C36.4966 65.1314 36.757 65.0676 37.0435 65.0676C37.7101 65.0676 38.1333 65.3411 38.313 65.8879C38.464 65.6249 38.6659 65.4231 38.9185 65.2825C39.1711 65.1392 39.4497 65.0676 39.7544 65.0676C40.6606 65.0676 41.1229 65.5624 41.1411 66.552V69.3723H40.6724V66.5872C40.6698 66.2096 40.5877 65.9296 40.4263 65.7473C40.2674 65.565 40.007 65.4739 39.645 65.4739C39.3091 65.4791 39.0252 65.5885 38.7935 65.802C38.5617 66.0129 38.4328 66.2708 38.4067 66.5754V69.3723H37.938V66.552C37.9354 66.19 37.8494 65.9205 37.6802 65.7434C37.5135 65.5637 37.2557 65.4739 36.9067 65.4739C36.6125 65.4739 36.3599 65.5585 36.1489 65.7278C35.938 65.8944 35.7817 66.1431 35.6802 66.4739V69.3723H35.2114V65.1458H35.6606ZM43.9653 69.4504C43.606 69.4504 43.2804 69.3619 42.9888 69.1848C42.6997 69.0077 42.4744 68.7616 42.313 68.4465C42.1515 68.1288 42.0708 67.7734 42.0708 67.3801V67.2122C42.0708 66.8059 42.1489 66.44 42.3052 66.1145C42.464 65.789 42.6841 65.5338 42.9653 65.3489C43.2466 65.1614 43.5513 65.0676 43.8794 65.0676C44.3924 65.0676 44.7987 65.2434 45.0981 65.595C45.4002 65.9439 45.5513 66.4218 45.5513 67.0286V67.2903H42.5356V67.3801C42.5356 67.8593 42.6724 68.259 42.9458 68.5793C43.2218 68.8971 43.5682 69.0559 43.9849 69.0559C44.2349 69.0559 44.4549 69.0103 44.645 68.9192C44.8377 68.828 45.0122 68.6822 45.1685 68.4817L45.4614 68.7043C45.1177 69.2017 44.619 69.4504 43.9653 69.4504ZM43.8794 65.4661C43.5278 65.4661 43.231 65.595 42.9888 65.8528C42.7492 66.1106 42.6034 66.4569 42.5513 66.8918H45.0864V66.8411C45.0734 66.4348 44.9575 66.1041 44.7388 65.8489C44.52 65.5937 44.2336 65.4661 43.8794 65.4661ZM48.9302 69.3723H48.4614V65.1458H48.9302V69.3723ZM48.3794 63.9231C48.3794 63.8346 48.408 63.7603 48.4653 63.7004C48.5226 63.6379 48.6007 63.6067 48.6997 63.6067C48.7987 63.6067 48.8768 63.6379 48.9341 63.7004C48.994 63.7603 49.0239 63.8346 49.0239 63.9231C49.0239 64.0116 48.994 64.0859 48.9341 64.1458C48.8768 64.2056 48.7987 64.2356 48.6997 64.2356C48.6007 64.2356 48.5226 64.2056 48.4653 64.1458C48.408 64.0859 48.3794 64.0116 48.3794 63.9231ZM52.7349 68.2981C52.7349 68.0663 52.6411 67.8801 52.4536 67.7395C52.2687 67.5989 51.9888 67.4895 51.6138 67.4114C51.2388 67.3306 50.9471 67.2395 50.7388 67.1379C50.533 67.0338 50.3794 66.9075 50.2778 66.759C50.1789 66.6106 50.1294 66.4309 50.1294 66.22C50.1294 65.8866 50.2687 65.6119 50.5474 65.3958C50.826 65.177 51.1828 65.0676 51.6177 65.0676C52.089 65.0676 52.4666 65.1848 52.7505 65.4192C53.0369 65.651 53.1802 65.9543 53.1802 66.3293H52.7114C52.7114 66.0819 52.6073 65.8762 52.3989 65.7122C52.1932 65.5481 51.9328 65.4661 51.6177 65.4661C51.3104 65.4661 51.063 65.5351 50.8755 65.6731C50.6906 65.8085 50.5981 65.9856 50.5981 66.2043C50.5981 66.4153 50.675 66.5793 50.8286 66.6965C50.9849 66.8111 51.2674 66.9166 51.6763 67.0129C52.0877 67.1093 52.395 67.2122 52.5981 67.3215C52.8039 67.4309 52.9562 67.5624 53.0552 67.7161C53.1541 67.8697 53.2036 68.0559 53.2036 68.2747C53.2036 68.6314 53.0591 68.9166 52.77 69.1301C52.4836 69.3437 52.1086 69.4504 51.645 69.4504C51.1528 69.4504 50.7531 69.3319 50.4458 69.095C50.1411 68.8554 49.9888 68.5533 49.9888 68.1887H50.4575C50.4757 68.4622 50.5903 68.6757 50.8013 68.8293C51.0148 68.9804 51.2961 69.0559 51.645 69.0559C51.9705 69.0559 52.2336 68.9843 52.4341 68.8411C52.6346 68.6978 52.7349 68.5168 52.7349 68.2981ZM57.2153 68.3997L57.2856 68.7629L57.3794 68.3801L58.395 65.1458H58.7935L59.7974 68.3528L59.9067 68.7981L59.9966 68.3879L60.8638 65.1458H61.3481L60.1177 69.3723H59.7192L58.6333 66.0208L58.5825 65.7903L58.5317 66.0247L57.4653 69.3723H57.0669L55.8403 65.1458H56.3208L57.2153 68.3997ZM62.6997 65.8606C62.8534 65.608 63.05 65.4127 63.2896 65.2747C63.5291 65.1366 63.7909 65.0676 64.0747 65.0676C64.5278 65.0676 64.8651 65.1952 65.0864 65.4504C65.3078 65.7056 65.4198 66.0885 65.4224 66.5989V69.3723H64.9575V66.595C64.9549 66.2174 64.8742 65.9361 64.7153 65.7512C64.5591 65.5663 64.3078 65.4739 63.9614 65.4739C63.6724 65.4739 63.4159 65.565 63.1919 65.7473C62.9705 65.927 62.8065 66.1705 62.6997 66.4778V69.3723H62.2349V63.3723H62.6997V65.8606ZM68.2622 69.4504C67.9028 69.4504 67.5773 69.3619 67.2856 69.1848C66.9966 69.0077 66.7713 68.7616 66.6099 68.4465C66.4484 68.1288 66.3677 67.7734 66.3677 67.3801V67.2122C66.3677 66.8059 66.4458 66.44 66.6021 66.1145C66.7609 65.789 66.981 65.5338 67.2622 65.3489C67.5435 65.1614 67.8481 65.0676 68.1763 65.0676C68.6893 65.0676 69.0955 65.2434 69.395 65.595C69.6971 65.9439 69.8481 66.4218 69.8481 67.0286V67.2903H66.8325V67.3801C66.8325 67.8593 66.9692 68.259 67.2427 68.5793C67.5187 68.8971 67.8651 69.0559 68.2817 69.0559C68.5317 69.0559 68.7518 69.0103 68.9419 68.9192C69.1346 68.828 69.3091 68.6822 69.4653 68.4817L69.7583 68.7043C69.4146 69.2017 68.9159 69.4504 68.2622 69.4504ZM68.1763 65.4661C67.8247 65.4661 67.5278 65.595 67.2856 65.8528C67.0461 66.1106 66.9002 66.4569 66.8481 66.8918H69.3833V66.8411C69.3703 66.4348 69.2544 66.1041 69.0356 65.8489C68.8169 65.5937 68.5304 65.4661 68.1763 65.4661ZM72.7114 65.5442C72.6125 65.526 72.507 65.5168 72.395 65.5168C72.1034 65.5168 71.856 65.5989 71.6528 65.7629C71.4523 65.9244 71.3091 66.1601 71.2231 66.47V69.3723H70.7583V65.1458H71.2153L71.2231 65.8176C71.4705 65.3176 71.8677 65.0676 72.4146 65.0676C72.5448 65.0676 72.6476 65.0846 72.7231 65.1184L72.7114 65.5442ZM75.0122 69.4504C74.6528 69.4504 74.3273 69.3619 74.0356 69.1848C73.7466 69.0077 73.5213 68.7616 73.3599 68.4465C73.1984 68.1288 73.1177 67.7734 73.1177 67.3801V67.2122C73.1177 66.8059 73.1958 66.44 73.3521 66.1145C73.5109 65.789 73.731 65.5338 74.0122 65.3489C74.2935 65.1614 74.5981 65.0676 74.9263 65.0676C75.4393 65.0676 75.8455 65.2434 76.145 65.595C76.4471 65.9439 76.5981 66.4218 76.5981 67.0286V67.2903H73.5825V67.3801C73.5825 67.8593 73.7192 68.259 73.9927 68.5793C74.2687 68.8971 74.6151 69.0559 75.0317 69.0559C75.2817 69.0559 75.5018 69.0103 75.6919 68.9192C75.8846 68.828 76.0591 68.6822 76.2153 68.4817L76.5083 68.7043C76.1646 69.2017 75.6659 69.4504 75.0122 69.4504ZM74.9263 65.4661C74.5747 65.4661 74.2778 65.595 74.0356 65.8528C73.7961 66.1106 73.6502 66.4569 73.5981 66.8918H76.1333V66.8411C76.1203 66.4348 76.0044 66.1041 75.7856 65.8489C75.5669 65.5937 75.2804 65.4661 74.9263 65.4661ZM80.7935 68.7004L82.0278 65.1458H82.5317L80.7271 70.0911L80.6333 70.3098C80.4015 70.8228 80.0435 71.0793 79.5591 71.0793C79.4471 71.0793 79.3273 71.0611 79.1997 71.0247L79.1958 70.6379L79.438 70.6614C79.6672 70.6614 79.8521 70.6041 79.9927 70.4895C80.1359 70.3775 80.257 70.1835 80.356 69.9075L80.563 69.3372L78.9692 65.1458H79.481L80.7935 68.7004ZM82.938 67.1965C82.938 66.7903 83.0161 66.4244 83.1724 66.0989C83.3312 65.7734 83.5539 65.5208 83.8403 65.3411C84.1294 65.1588 84.4562 65.0676 84.8208 65.0676C85.3833 65.0676 85.839 65.2655 86.188 65.6614C86.5369 66.0546 86.7114 66.5767 86.7114 67.2278V67.3254C86.7114 67.7343 86.632 68.1028 86.4731 68.4309C86.3169 68.7564 86.0955 69.0077 85.8091 69.1848C85.5226 69.3619 85.1958 69.4504 84.8286 69.4504C84.2687 69.4504 83.813 69.2538 83.4614 68.8606C83.1125 68.4648 82.938 67.9413 82.938 67.2903V67.1965ZM83.4067 67.3254C83.4067 67.8306 83.5369 68.246 83.7974 68.5715C84.0604 68.8944 84.4041 69.0559 84.8286 69.0559C85.2505 69.0559 85.5916 68.8944 85.8521 68.5715C86.1151 68.246 86.2466 67.8176 86.2466 67.2864V67.1965C86.2466 66.8736 86.1867 66.578 86.0669 66.3098C85.9471 66.0416 85.7791 65.8346 85.563 65.6887C85.3468 65.5403 85.0994 65.4661 84.8208 65.4661C84.4041 65.4661 84.0643 65.6301 83.8013 65.9583C83.5382 66.2838 83.4067 66.7109 83.4067 67.2395V67.3254ZM90.3989 68.8372C90.1177 69.246 89.6685 69.4504 89.0513 69.4504C88.6007 69.4504 88.2583 69.3202 88.0239 69.0598C87.7896 68.7968 87.6698 68.4088 87.6646 67.8958V65.1458H88.1294V67.8372C88.1294 68.6418 88.4549 69.0442 89.106 69.0442C89.783 69.0442 90.2114 68.7642 90.3911 68.2043V65.1458H90.8599V69.3723H90.4067L90.3989 68.8372ZM96.6919 69.3723C96.645 69.2395 96.6151 69.0429 96.6021 68.7825C96.438 68.996 96.2284 69.1614 95.9731 69.2786C95.7205 69.3931 95.4523 69.4504 95.1685 69.4504C94.7622 69.4504 94.4328 69.3372 94.1802 69.1106C93.9302 68.884 93.8052 68.5976 93.8052 68.2512C93.8052 67.8398 93.9757 67.5142 94.3169 67.2747C94.6606 67.0351 95.1385 66.9153 95.7505 66.9153H96.5981V66.4348C96.5981 66.1327 96.5044 65.8958 96.3169 65.7239C96.132 65.5494 95.8612 65.4622 95.5044 65.4622C95.1789 65.4622 94.9093 65.5455 94.6958 65.7122C94.4823 65.8788 94.3755 66.0793 94.3755 66.3137L93.9067 66.3098C93.9067 65.9739 94.063 65.6835 94.3755 65.4387C94.688 65.1913 95.0721 65.0676 95.5278 65.0676C95.9992 65.0676 96.3703 65.1861 96.6411 65.4231C96.9146 65.6575 97.0552 65.9856 97.063 66.4075V68.4075C97.063 68.8163 97.106 69.1223 97.1919 69.3254V69.3723H96.6919ZM95.2231 69.0364C95.5356 69.0364 95.8143 68.9609 96.0591 68.8098C96.3065 68.6588 96.4862 68.4569 96.5981 68.2043V67.2747H95.7622C95.2961 67.2799 94.9315 67.3658 94.6685 67.5325C94.4054 67.6965 94.2739 67.9231 94.2739 68.2122C94.2739 68.4491 94.3612 68.6458 94.5356 68.802C94.7127 68.9583 94.9419 69.0364 95.2231 69.0364ZM100.266 65.5442C100.167 65.526 100.062 65.5168 99.9497 65.5168C99.658 65.5168 99.4106 65.5989 99.2075 65.7629C99.007 65.9244 98.8638 66.1601 98.7778 66.47V69.3723H98.313V65.1458H98.77L98.7778 65.8176C99.0252 65.3176 99.4224 65.0676 99.9692 65.0676C100.099 65.0676 100.202 65.0846 100.278 65.1184L100.266 65.5442ZM102.567 69.4504C102.208 69.4504 101.882 69.3619 101.59 69.1848C101.301 69.0077 101.076 68.7616 100.915 68.4465C100.753 68.1288 100.672 67.7734 100.672 67.3801V67.2122C100.672 66.8059 100.75 66.44 100.907 66.1145C101.066 65.789 101.286 65.5338 101.567 65.3489C101.848 65.1614 102.153 65.0676 102.481 65.0676C102.994 65.0676 103.4 65.2434 103.7 65.595C104.002 65.9439 104.153 66.4218 104.153 67.0286V67.2903H101.137V67.3801C101.137 67.8593 101.274 68.259 101.547 68.5793C101.823 68.8971 102.17 69.0559 102.586 69.0559C102.836 69.0559 103.056 69.0103 103.247 68.9192C103.439 68.828 103.614 68.6822 103.77 68.4817L104.063 68.7043C103.719 69.2017 103.221 69.4504 102.567 69.4504ZM102.481 65.4661C102.129 65.4661 101.833 65.595 101.59 65.8528C101.351 66.1106 101.205 66.4569 101.153 66.8918H103.688V66.8411C103.675 66.4348 103.559 66.1041 103.34 65.8489C103.122 65.5937 102.835 65.4661 102.481 65.4661Z" fill="white"/>
</svg>
