<svg width="400" height="315" viewBox="0 0 400 315" fill="none" xmlns="http://www.w3.org/2000/svg">
<g clip-path="url(#clip0)">
<path d="M18.5865 300.162C24.1349 309.869 35.9106 314.036 35.9106 314.036C35.9106 314.036 38.6905 302.465 33.1421 292.758C27.5937 283.051 15.818 278.884 15.818 278.884C15.818 278.884 13.0381 290.455 18.5865 300.162Z" fill="#2F2E41"/>
<path d="M22.4002 296.968C32.4174 302.654 36.2753 313.946 36.2753 313.946C36.2753 313.946 23.8922 316.021 13.8751 310.336C3.85792 304.65 0 293.358 0 293.358C0 293.358 12.3831 291.283 22.4002 296.968Z" fill="#6C63FF"/>
<path d="M246.986 15.1221H184.486V15.9643H246.986V15.1221Z" fill="#F2F2F2"/>
<path d="M230.022 15.7539H229.129V23.545H230.022V15.7539Z" fill="#F2F2F2"/>
<path d="M202.789 15.7539H201.896V23.545H202.789V15.7539Z" fill="#F2F2F2"/>
<path d="M278.682 55.5515H216.182V56.3938H278.682V55.5515Z" fill="#F2F2F2"/>
<path d="M234.039 47.9709H233.146V55.762H234.039V47.9709Z" fill="#F2F2F2"/>
<path d="M261.272 47.9709H260.379V55.762H261.272V47.9709Z" fill="#F2F2F2"/>
<path d="M361.718 74.5029H299.218V75.3452H361.718V74.5029Z" fill="#F2F2F2"/>
<path d="M317.075 66.9224H316.182V74.7134H317.075V66.9224Z" fill="#F2F2F2"/>
<path d="M344.307 66.9224H343.415V74.7134H344.307V66.9224Z" fill="#F2F2F2"/>
<path d="M355.468 269.911H292.968V270.754H355.468V269.911Z" fill="#F2F2F2"/>
<path d="M310.825 262.331H309.932V270.122H310.825V262.331Z" fill="#F2F2F2"/>
<path d="M338.057 262.331H337.165V270.122H338.057V262.331Z" fill="#F2F2F2"/>
<path d="M248.771 134.726H186.271V135.568H248.771V134.726Z" fill="#F2F2F2"/>
<path d="M204.129 127.145H203.236V134.936H204.129V127.145Z" fill="#F2F2F2"/>
<path d="M231.361 127.145H230.468V134.936H231.361V127.145Z" fill="#F2F2F2"/>
<path d="M268.415 236.22H205.915V237.062H268.415V236.22Z" fill="#F2F2F2"/>
<path d="M223.772 228.64H222.879V236.431H223.772V228.64Z" fill="#F2F2F2"/>
<path d="M251.004 228.64H250.111V236.431H251.004V228.64Z" fill="#F2F2F2"/>
<path d="M368.415 205.477H305.915V206.319H368.415V205.477Z" fill="#F2F2F2"/>
<path d="M323.772 197.896H322.879V205.688H323.772V197.896Z" fill="#F2F2F2"/>
<path d="M351.004 197.896H350.111V205.688H351.004V197.896Z" fill="#F2F2F2"/>
<path d="M161.634 295.717H55.9258V295H160.873V260.205H64.8124L60.1459 251.034L60.8316 250.724L65.291 259.488H161.634V295.717Z" fill="#2F2E41"/>
<path d="M69.9949 313.294C74.405 313.294 77.9801 309.921 77.9801 305.761C77.9801 301.601 74.405 298.228 69.9949 298.228C65.5848 298.228 62.0098 301.601 62.0098 305.761C62.0098 309.921 65.5848 313.294 69.9949 313.294Z" fill="#3F3D56"/>
<path d="M148.705 313.294C153.115 313.294 156.691 309.921 156.691 305.761C156.691 301.601 153.115 298.228 148.705 298.228C144.295 298.228 140.72 301.601 140.72 305.761C140.72 309.921 144.295 313.294 148.705 313.294Z" fill="#3F3D56"/>
<path d="M241.485 150.442C244.215 150.442 246.428 148.354 246.428 145.778C246.428 143.203 244.215 141.115 241.485 141.115C238.755 141.115 236.542 143.203 236.542 145.778C236.542 148.354 238.755 150.442 241.485 150.442Z" fill="#3F3D56"/>
<path d="M172.94 248.368H54.1236L28.4146 169.094H199.416L199.261 169.561L172.94 248.368ZM54.6862 247.651H172.382L198.38 169.812H29.4424L54.6862 247.651Z" fill="#2F2E41"/>
<path d="M163.665 244.243H59.3044L36.7231 173.937H186.92L186.783 174.351L163.665 244.243Z" fill="#F2F2F2"/>
<path d="M201.547 162.012L200.812 161.828L205.83 143.985H235.021V144.702H206.415L201.547 162.012Z" fill="#2F2E41"/>
<path d="M190.871 193.127H36.7227V193.845H190.871V193.127Z" fill="#2F2E41"/>
<path d="M182.043 219.558H45.2939V220.276H182.043V219.558Z" fill="#2F2E41"/>
<path d="M114.293 169.453H113.533V248.009H114.293V169.453Z" fill="#2F2E41"/>
<path d="M148.342 169.43L142.883 247.985L143.642 248.032L149.101 169.477L148.342 169.43Z" fill="#2F2E41"/>
<path d="M79.5002 169.43L78.7412 169.476L84.1686 248.033L84.9276 247.986L79.5002 169.43Z" fill="#2F2E41"/>
<path d="M400 313.749H0V314.591H400V313.749Z" fill="#2F2E41"/>
<path d="M265.809 26.0584C265.809 26.0584 272.335 43.5805 268.319 46.2762C264.303 48.9719 281.873 70.9867 281.873 70.9867L302.957 65.5953L291.411 47.1747C291.411 47.1747 289.905 28.7541 289.905 26.0584C289.905 23.3627 265.809 26.0584 265.809 26.0584Z" fill="#A0616A"/>
<path opacity="0.1" d="M265.809 26.0584C265.809 26.0584 272.335 43.5805 268.319 46.2762C264.303 48.9719 281.873 70.9867 281.873 70.9867L302.957 65.5953L291.411 47.1747C291.411 47.1747 289.905 28.7541 289.905 26.0584C289.905 23.3627 265.809 26.0584 265.809 26.0584Z" fill="black"/>
<path d="M254.855 150.959C254.855 150.959 252.949 173.423 254.855 185.104C256.76 196.786 259.617 229.134 259.617 229.134C259.617 229.134 259.617 290.237 270.095 291.135C280.573 292.034 288.193 292.932 289.145 289.338C290.098 285.744 284.383 283.947 287.24 282.149C290.098 280.352 291.05 274.062 287.24 266.874C283.43 259.685 287.24 186.902 287.24 186.902L305.338 232.728C305.338 232.728 307.243 270.468 309.148 275.86C311.053 281.251 307.243 291.135 313.911 292.034C320.579 292.932 328.199 287.541 332.009 285.744C335.819 283.947 326.294 283.947 328.199 283.048C330.104 282.149 335.819 279.454 333.914 278.555C332.009 277.657 330.104 234.525 330.104 234.525C330.104 234.525 324.865 142.423 318.197 138.828C311.53 135.234 307.243 141.425 307.243 141.425L254.855 150.959Z" fill="#2F2E41"/>
<path d="M272 287.541V294.73C272 294.73 263.427 314.27 272 314.27C280.573 314.27 287.24 316.295 287.24 313.599V289.338L272 287.541Z" fill="#2F2E41"/>
<path d="M328.199 287.528V294.717C328.199 294.717 336.772 314.257 328.199 314.257C319.626 314.257 312.958 316.282 312.958 313.587V289.325L328.199 287.528Z" fill="#2F2E41"/>
<path d="M279.144 39.0876C288.613 39.0876 296.289 31.8462 296.289 22.9134C296.289 13.9807 288.613 6.73926 279.144 6.73926C269.674 6.73926 261.998 13.9807 261.998 22.9134C261.998 31.8462 269.674 39.0876 279.144 39.0876Z" fill="#A0616A"/>
<path d="M273.905 53.0154C273.905 53.0154 278.668 66.4939 286.288 63.7982L293.908 61.1025L307.243 147.365C307.243 147.365 296.766 161.742 281.525 152.756C266.285 143.77 273.905 53.0154 273.905 53.0154Z" fill="#6C63FF"/>
<path d="M287.24 50.3196L291.527 41.7832C291.527 41.7832 316.768 53.0153 320.579 56.6095C324.389 60.2038 324.389 65.5952 324.389 65.5952L317.721 88.0593C317.721 88.0593 319.626 137.48 319.626 139.278C319.626 141.075 326.294 150.959 321.531 147.365C316.768 143.77 315.816 140.176 312.006 145.568C308.196 150.959 299.623 157.249 299.623 157.249L287.24 50.3196Z" fill="#3F3D56"/>
<path d="M320.578 115.016L317.721 140.176C317.721 140.176 300.575 154.553 304.385 155.452C308.196 156.35 310.101 152.756 310.101 152.756C310.101 152.756 316.768 159.046 320.578 155.452C324.389 151.858 333.914 117.712 333.914 117.712L320.578 115.016Z" fill="#A0616A"/>
<path d="M279.509 0.0546938C275.708 -0.0734883 271.641 -0.136895 268.436 1.79535C266.961 2.76506 265.668 3.95936 264.609 5.32935C261.488 9.05157 258.791 13.735 259.95 18.3532L261.297 17.8578C261.297 19.0906 261.006 20.3079 260.446 21.4217C260.636 20.9016 261.271 21.7424 261.101 22.2686L259.618 26.8593C262.056 26.016 265.089 27.7234 265.461 30.1482C265.63 24.8161 266.217 18.7018 270.802 15.5797C273.114 14.0052 276.04 13.5245 278.856 13.0977C281.453 12.7039 284.176 12.3284 286.664 13.1351C289.152 13.9418 291.271 16.3421 290.707 18.7661C291.854 18.3933 293.137 19.1475 293.704 20.1595C294.271 21.1714 294.301 22.3652 294.318 23.5097C295.541 24.3249 296.932 22.7061 297.431 21.374C298.6 18.2473 299.64 14.9191 299.01 11.6571C298.38 8.3951 295.562 5.27778 292.047 5.26672C292.474 4.82466 292.702 4.24339 292.682 3.64586L289.785 3.41495C290.52 3.31671 291.197 2.98031 291.698 2.46337C290.535 3.67074 281.39 0.118122 279.509 0.0546938Z" fill="#2F2E41"/>
<path d="M278.667 47.6239C278.667 47.6239 270.913 40.4558 268.123 40.8949C265.332 41.334 261.522 47.6239 261.522 47.6239C261.522 47.6239 238.661 54.8124 239.614 62.001C240.566 69.1895 251.044 104.234 251.044 104.234C251.044 104.234 259.617 146.466 251.997 150.959C244.377 155.452 288.193 167.133 289.145 161.742C290.098 156.35 292.003 102.436 289.145 94.3493C286.288 86.2622 278.667 47.6239 278.667 47.6239Z" fill="#3F3D56"/>
<path d="M312.006 62.001H323.784C323.784 62.001 332.009 96.1465 332.961 99.7407C333.914 103.335 335.819 120.408 334.866 120.408C333.914 120.408 314.863 116.813 314.863 119.509L312.006 62.001Z" fill="#3F3D56"/>
<path d="M311.607 146.556H266.518C262.118 127.462 261.75 109.013 266.518 91.3872H311.607C304.331 108.696 303.876 127.019 311.607 146.556Z" fill="#F2F2F2"/>
<path d="M248.187 123.103L261.522 128.495C261.522 128.495 287.24 132.089 287.24 122.205C287.24 112.321 261.522 117.712 261.522 117.712L252.949 115.126L248.187 123.103Z" fill="#A0616A"/>
<path d="M251.044 56.6096L239.614 59.3053L231.041 106.929C231.041 106.929 228.184 119.509 232.946 120.408C237.709 121.306 251.044 128.495 251.044 128.495C251.044 128.495 252.949 115.016 256.759 115.016L247.234 107.828L252.949 76.3781L251.044 56.6096Z" fill="#3F3D56"/>
<path d="M89.3965 148.623H26.8965V149.466H89.3965V148.623Z" fill="#F2F2F2"/>
<path d="M44.7537 141.043H43.8608V148.834H44.7537V141.043Z" fill="#F2F2F2"/>
<path d="M71.9861 141.043H71.0933V148.834H71.9861V141.043Z" fill="#F2F2F2"/>
<path d="M111.271 23.9661H48.7715V24.8083H111.271V23.9661Z" fill="#F2F2F2"/>
<path d="M94.3074 24.5977H93.4146V32.3887H94.3074V24.5977Z" fill="#F2F2F2"/>
<path d="M67.075 24.5977H66.1821V32.3887H67.075V24.5977Z" fill="#F2F2F2"/>
<path d="M174.218 106.93H111.718V107.773H174.218V106.93Z" fill="#F2F2F2"/>
<path d="M157.254 107.562H156.361V115.353H157.254V107.562Z" fill="#F2F2F2"/>
<path d="M130.022 107.562H129.129V115.353H130.022V107.562Z" fill="#F2F2F2"/>
<path d="M67.9683 106.509H5.46826V107.352H67.9683V106.509Z" fill="#F2F2F2"/>
<path d="M51.0037 107.141H50.1108V114.932H51.0037V107.141Z" fill="#F2F2F2"/>
<path d="M23.7718 107.141H22.8789V114.932H23.7718V107.141Z" fill="#F2F2F2"/>
<path d="M142.968 64.3955H80.4683V65.2378H142.968V64.3955Z" fill="#F2F2F2"/>
<path d="M98.325 56.8149H97.4321V64.606H98.325V56.8149Z" fill="#F2F2F2"/>
<path d="M125.557 56.8149H124.665V64.606H125.557V56.8149Z" fill="#F2F2F2"/>
</g>
<defs>
<clipPath id="clip0">
<rect width="400" height="315" fill="white"/>
</clipPath>
</defs>
</svg>
