<svg width="32" height="30" viewBox="0 0 32 30" fill="none" xmlns="http://www.w3.org/2000/svg">
<path d="M1.14286 7.73438H30.8571C31.4884 7.73438 32 7.31467 32 6.79688V4.45312C32 3.93533 31.4884 3.51562 30.8571 3.51562H1.14286C0.511643 3.51562 0 3.93533 0 4.45312V6.79688C0 7.31467 0.511643 7.73438 1.14286 7.73438ZM1.14286 17.1094H30.8571C31.4884 17.1094 32 16.6897 32 16.1719V13.8281C32 13.3103 31.4884 12.8906 30.8571 12.8906H1.14286C0.511643 12.8906 0 13.3103 0 13.8281V16.1719C0 16.6897 0.511643 17.1094 1.14286 17.1094ZM1.14286 26.4844H30.8571C31.4884 26.4844 32 26.0647 32 25.5469V23.2031C32 22.6853 31.4884 22.2656 30.8571 22.2656H1.14286C0.511643 22.2656 0 22.6853 0 23.2031V25.5469C0 26.0647 0.511643 26.4844 1.14286 26.4844Z" fill="white"/>
</svg>
